<?xml version="1.0" encoding="UTF-8"?>
<svg width="32px" height="32px" viewBox="0 0 32 32" version="1.1" xmlns="http://www.w3.org/2000/svg" xmlns:xlink="http://www.w3.org/1999/xlink">
    <title>Actual Draws</title>
    <g id="Actual-Draws" stroke="none" stroke-width="1" fill="none" fill-rule="evenodd">
        <g id="Group" transform="translate(11.504030, 4.739858)" stroke="#000000">
            <ellipse id="Oval" cx="7.74850934" cy="2.261903" rx="7.108838" ry="2.261903"></ellipse>
            <path d="M0.639671344,8.401354 C0.639671344,9.82902775 3.82240653,10.986386 7.74850934,10.986386 C11.6746122,10.986386 14.8573473,9.82902775 14.8573473,8.401354" id="Path"></path>
            <path d="M0.639671344,11.632644 C0.639671344,13.0603177 3.82240653,14.217676 7.74850934,14.217676 C11.6746122,14.217676 14.8573473,13.0603177 14.8573473,11.632644" id="Path"></path>
            <path d="M0.639671344,5.170064 C0.639671344,6.59773775 3.82240653,7.755096 7.74850934,7.755096 C11.6746122,7.755096 14.8573473,6.59773775 14.8573473,5.170064" id="Path"></path>
            <line x1="14.8573473" y1="2.585032" x2="14.8573473" y2="11.309515" id="Line-10" stroke-linecap="square"></line>
            <line x1="0.639671344" y1="2.585032" x2="0.639671344" y2="11.309515" id="Line-10" stroke-linecap="square"></line>
        </g>
        <rect id="Rectangle" stroke="#000000" x="1.36816766" y="19.3007565" width="3.88310699" height="11.6484867" rx="1"></rect>
        <path d="M14.1629636,25.5532041 C14.9554858,25.5532041 17.4163711,25.7238585 19.5723262,25.4064754 C22.0073772,25.048006 22.1613646,25.048006 22.4317458,24.0346221 C22.5361474,23.6433269 22.1613646,22.7873763 21.4457156,22.6648989 C19.5439519,22.3394278 17.0059981,22.3394278 14.0489771,22.3394278 C13.6599812,22.3394278 12.8014951,21.3837319 11.8610941,21.2024604 C9.76962294,20.7993088 7.08854413,20.7017249 7.08854413,21.2024604 C7.08854413,23.0951155 7.08854413,27.4981053 7.08854413,28.4749961" id="Path" stroke="#000000" stroke-linecap="round"></path>
        <path d="M7.08854413,28.4749961 C7.48866183,28.5136827 8.6773756,28.4643676 9.2537735,28.6587904 C13.7358996,30.170641 16.1319505,30.9492432 17.7899588,30.9492432 C19.004032,30.9492432 22.8545612,28.9042789 24.460555,28.1589203 C26.31937,27.2962247 31.1790996,25.4798983 30.2732937,23.5897496 C29.3674879,21.6996009 24.9325032,24.6687584 22.5527248,24.6687584" id="Path" stroke="#000000" stroke-linecap="round"></path>
    </g>
</svg>