<?xml version="1.0" encoding="UTF-8"?>
<svg width="40px" height="40px" viewBox="0 0 40 40" version="1.1" xmlns="http://www.w3.org/2000/svg" xmlns:xlink="http://www.w3.org/1999/xlink">
    <!-- Generator: Sketch 63.1 (92452) - https://sketch.com -->
    <title>Add to Submission</title>
    <desc>Created with Sketch.</desc>
    <g id="Add-to-Submission" stroke="none" stroke-width="1" fill="none" fill-rule="evenodd">
        <g id="Group" transform="translate(2.000000, 2.207995)">
            <g transform="translate(4.655996, 0.000000)" stroke="#000000">
                <path d="M0,20.3956941 L0,20.3956941 L0,1 C0,0.44771525 0.44771525,0 1,0 L25.688008,0 C26.2402928,0 26.688008,0.44771525 26.688008,1 L26.688008,34.5840107 C26.688008,35.1362955 26.2402928,35.5840107 25.688008,35.5840107 L9.94389524,35.5840107 L9.94389524,35.5840107" id="Path" stroke-width="1.4" stroke-linecap="round"></path>
                <line x1="5.55982718" y1="10.008003" x2="22.2345974" y2="10.008003" id="Line-4" stroke-width="1.4" stroke-linecap="round"></line>
                <rect id="Rectangle" stroke-width="1.4" stroke-linejoin="round" x="5.56000167" y="16.680005" width="4.71627299" height="4.44800134"></rect>
                <line x1="5.55982718" y1="13.344004" x2="22.2345974" y2="13.344004" id="Line-4" stroke-width="1.4" stroke-linecap="round"></line>
                <line x1="11.1654231" y1="24.4640074" x2="22.4154231" y2="24.4640074" id="Line-4" stroke-width="1.4" stroke-linecap="round"></line>
                <line x1="13.58834" y1="17.2360052" x2="20.9184204" y2="17.2360052" id="Line-4" stroke-width="1.4" stroke-linecap="round"></line>
                <line x1="13.58834" y1="20.5720062" x2="20.9184204" y2="20.5720062" id="Line-4" stroke-width="1.4" stroke-linecap="round"></line>
                <line x1="11.6556768" y1="27.8000084" x2="22.2345974" y2="27.8000084" id="Line-4" stroke-width="1.4" stroke-linecap="round"></line>
                <line x1="11.1654231" y1="31.1360094" x2="22.4154231" y2="31.1360094" id="Line-4" stroke-width="1.4" stroke-linecap="round"></line>
                <line x1="6.14512181" y1="5.35852046" x2="20.9184204" y2="5.35852046" id="Line-4" stroke-width="2.5" stroke-linecap="round"></line>
            </g>
            <g id="plus-circle-outline" transform="translate(0.000000, 21.792005)" fill="#000000" fill-rule="nonzero">
                <path d="M7.21902849,12.9942513 C4.03543693,12.9942513 1.4438057,10.4026201 1.4438057,7.21902849 C1.4438057,4.03543693 4.03543693,1.4438057 7.21902849,1.4438057 C10.4026201,1.4438057 12.9942513,4.03543693 12.9942513,7.21902849 C12.9942513,10.4026201 10.4026201,12.9942513 7.21902849,12.9942513 M7.21902849,-3.20589266e-16 C3.23206915,-3.20589266e-16 -3.20589266e-16,3.23206915 -3.20589266e-16,7.21902849 C-3.20589266e-16,9.13363389 0.760574033,10.969822 2.11440449,12.3236525 C3.46823495,13.677483 5.3044231,14.438057 7.21902849,14.438057 C9.13363389,14.438057 10.969822,13.677483 12.3236525,12.3236525 C13.677483,10.969822 14.438057,9.13363389 14.438057,7.21902849 C14.438057,5.3044231 13.677483,3.46823495 12.3236525,2.11440449 C10.969822,0.760574033 9.13363389,-3.20589266e-16 7.21902849,-3.20589266e-16 M7.94093134,3.60951425 L6.49712564,3.60951425 L6.49712564,6.49712564 L3.60951425,6.49712564 L3.60951425,7.94093134 L6.49712564,7.94093134 L6.49712564,10.8285427 L7.94093134,10.8285427 L7.94093134,7.94093134 L10.8285427,7.94093134 L10.8285427,6.49712564 L7.94093134,6.49712564 L7.94093134,3.60951425 Z" id="Shape"></path>
            </g>
        </g>
    </g>
</svg>