<?xml version="1.0" encoding="UTF-8"?>
<svg width="32px" height="32px" viewBox="0 0 32 32" version="1.1" xmlns="http://www.w3.org/2000/svg" xmlns:xlink="http://www.w3.org/1999/xlink">
    <!-- Generator: Sketch 64 (93537) - https://sketch.com -->
    <title>Add to Submission</title>
    <desc>Created with Sketch.</desc>
    <g id="Add-to-Submission" stroke="none" stroke-width="1" fill="none" fill-rule="evenodd">
        <path d="M28.4310345,13.1407121 L28.4310345,13.1407121 L28.4310345,30.0528523 C28.4310345,30.5759475 28.0116371,31 27.4942842,31 L4.3677848,31 C3.85043189,31 3.43103448,30.5759475 3.43103448,30.0528523 L3.43103448,1.94714772 C3.43103448,1.42405248 3.85043189,1 4.3677848,1 L18.7868294,1 L18.7868294,1" id="Path" stroke="#000000" stroke-width="1.38" stroke-linecap="round"></path>
        <line x1="20.7122845" y1="5.5" x2="29.1497845" y2="5.5" id="Line-4" stroke="#000000" stroke-width="1.38" stroke-linecap="round"></line>
        <line x1="20.4310345" y1="5.5" x2="29.4310345" y2="5.5" id="Line-4" stroke="#000000" stroke-width="1.38" stroke-linecap="round" transform="translate(24.931034, 5.500000) rotate(90.000000) translate(-24.931034, -5.500000) "></line>
        <rect id="Rectangle" stroke="#000000" stroke-width="1.38" stroke-linejoin="round" x="9" y="6" width="4" height="4"></rect>
        <line x1="8.55582567" y1="25.5560002" x2="16.3400025" y2="25.5560002" id="Line-4" stroke="#000000" stroke-width="1.38" stroke-linecap="round"></line>
        <line x1="8.53125" y1="21" x2="24.46875" y2="21" id="Line-4" stroke="#000000" stroke-width="1.38" stroke-linecap="round"></line>
        <line x1="8.53125" y1="15" x2="24.46875" y2="15" id="Line-4" stroke="#000000" stroke-width="1.38" stroke-linecap="round"></line>
        <line x1="8.53125" y1="18" x2="24.46875" y2="18" id="Line-4" stroke="#000000" stroke-width="1.38" stroke-linecap="round"></line>
    </g>
</svg>