<?xml version="1.0" encoding="UTF-8"?>
<svg width="32px" height="32px" viewBox="0 0 32 32" version="1.1" xmlns="http://www.w3.org/2000/svg" xmlns:xlink="http://www.w3.org/1999/xlink">
    <!-- Generator: Sketch 64 (93537) - https://sketch.com -->
    <title>Bus Type</title>
    <desc>Created with Sketch.</desc>
    <g id="Bus-Type" stroke="none" stroke-width="1" fill="none" fill-rule="evenodd">
        <g id="Group" transform="translate(2.000000, 3.000000)" stroke="#000000">
            <rect id="Rectangle" x="-1.77635684e-14" y="6.03961325e-14" width="21.3775035" height="24.0797777" rx="3"></rect>
            <circle id="Oval" cx="3.7583757" cy="18.573731" r="1.87929873"></circle>
            <circle id="Oval" cx="3.7583757" cy="2.85980055" r="1"></circle>
            <circle id="Oval" cx="17.4452267" cy="18.573731" r="1.87929873"></circle>
            <circle id="Oval" cx="17.4452267" cy="2.85980055" r="1"></circle>
            <line x1="8.33950515" y1="20.1221501" x2="13.0379984" y2="20.1221501" id="Line" stroke-linecap="round"></line>
            <rect id="Rectangle" x="2.58380168" y="5.14726791" width="16.2099002" height="8.36090009" rx="1"></rect>
            <path d="M2.46638863,24.0797777 L5.75523532,24.0797777 L5.75523532,26.016336 C5.75523532,26.5686208 5.30752007,27.016336 4.75523532,27.016336 L3.46638863,27.016336 C2.91410388,27.016336 2.46638863,26.5686208 2.46638863,26.016336 L2.46638863,24.0797777 L2.46638863,24.0797777 Z" id="Rectangle"></path>
            <path d="M15.4550058,24.0797777 L18.7438524,24.0797777 L18.7438524,26.016336 C18.7438524,26.5686208 18.2961372,27.016336 17.7438524,27.016336 L16.4550058,27.016336 C15.902721,27.016336 15.4550058,26.5686208 15.4550058,26.016336 L15.4550058,24.0797777 L15.4550058,24.0797777 Z" id="Rectangle"></path>
            <line x1="8.33950515" y1="17.7165586" x2="13.0379984" y2="17.7165586" id="Line" stroke-linecap="round"></line>
        </g>
        <rect id="Rectangle" stroke="#000000" stroke-linejoin="round" x="25.3135808" y="3" width="5" height="4.76018769"></rect>
        <rect id="Rectangle" stroke="#000000" stroke-linejoin="round" transform="translate(27.813581, 27.267069) rotate(-315.000000) translate(-27.813581, -27.267069) " x="25.8135808" y="25.251937" width="4" height="4.03026473"></rect>
        <ellipse id="Oval" stroke="#000000" stroke-linejoin="round" cx="27.8135808" cy="19.8080359" rx="2.5" ry="2.38009385"></ellipse>
        <polygon id="Triangle" stroke="#000000" stroke-linejoin="round" points="27.8135808 10 30.3135808 15.1881298 25.3135808 15.1881298"></polygon>
    </g>
</svg>