<?xml version="1.0" encoding="UTF-8"?>
<svg width="40px" height="40px" viewBox="0 0 40 40" version="1.1" xmlns="http://www.w3.org/2000/svg" xmlns:xlink="http://www.w3.org/1999/xlink">
    <!-- Generator: Sketch 63.1 (92452) - https://sketch.com -->
    <title>Bus</title>
    <desc>Created with Sketch.</desc>
    <g id="Bus" stroke="none" stroke-width="1" fill="none" fill-rule="evenodd">
        <g id="school_bus" transform="translate(3.000000, 13.000000)" fill="#000000" fill-rule="nonzero">
            <path d="M28,19.7225 L26.600042,19.7225 L26.600042,21.921875 C26.600042,22.51125 26.1240562,23 25.5500734,23 L24.8500944,23 C24.2761116,23 23.8001259,22.51125 23.8001259,21.921875 L23.8001259,20.125 L14.0004195,20.125 L14.0004195,21.921875 C14.0004195,22.51125 13.5244338,23 12.950451,23 L12.250472,23 C11.6764892,23 11.2005034,22.51125 11.2005034,21.921875 L11.2005034,19.7225 L9.80054539,19.7225 L9.80054539,4.3125 C9.80054539,0 14.0004195,0 18.9002727,0 C23.8001259,0 28,0 28,4.3125 L28,19.7225 Z M13.999958,15.8125 C13.999958,15.021875 13.3699769,14.375 12.6,14.375 C11.8300231,14.375 11.200042,15.021875 11.200042,15.8125 C11.200042,16.603125 11.8300231,17.25 12.6,17.25 C13.3699769,17.25 13.999958,16.603125 13.999958,15.8125 M13.2,1.61608989 C13.2,1.27724045 12.93,1 12.6,1 C12.27,1 12,1.27724045 12,1.61608989 C12,1.95493933 12.27,2.23217978 12.6,2.23217978 C12.93,2.23217978 13.2,1.95493933 13.2,1.61608989 M15.4003776,1.61608989 C15.4003776,1.27724045 15.1303776,1 14.8003776,1 C14.4703776,1 14.2003776,1.27724045 14.2003776,1.61608989 C14.2003776,1.95493933 14.4703776,2.23217978 14.8003776,2.23217978 C15.1303776,2.23217978 15.4003776,1.95493933 15.4003776,1.61608989 M26.600042,15.8125 C26.600042,15.021875 25.9700608,14.375 25.2000839,14.375 C24.430107,14.375 23.8001259,15.021875 23.8001259,15.8125 C23.8001259,16.603125 24.430107,17.25 25.2000839,17.25 C25.9700608,17.25 26.600042,16.603125 26.600042,15.8125 M23.6001678,1.61608989 C23.6001678,1.27724045 23.3301678,1 23.0001678,1 C22.6701678,1 22.4001678,1.27724045 22.4001678,1.61608989 C22.4001678,1.95493933 22.6701678,2.23217978 23.0001678,2.23217978 C23.3301678,2.23217978 23.6001678,1.95493933 23.6001678,1.61608989 M25.8000839,1.61608989 C25.8000839,1.27724045 25.5300839,1 25.2000839,1 C24.8700839,1 24.6000839,1.27724045 24.6000839,1.61608989 C24.6000839,1.95493933 24.8700839,2.23217978 25.2000839,2.23217978 C25.5300839,2.23217978 25.8000839,1.95493933 25.8000839,1.61608989 M26.9002727,4.3125 L10.9002727,4.3125 L10.9002727,8.91967978 L26.9002727,8.91967978 L26.9002727,4.3125 M22.8246369,16.7073526 L14.9759085,16.7073526 L14.9759085,17.25 L22.8246369,17.25 L22.8246369,16.7073526 M22.8246369,15.5411763 L14.9759085,15.5411763 L14.9759085,16.0838237 L22.8246369,16.0838237 L22.8246369,15.5411763 M22.8246369,14.375 L14.9759085,14.375 L14.9759085,14.9176474 L22.8246369,14.9176474 L22.8246369,14.375 M24.0050667,10.3126043 L13.8060448,10.3126043 L12.6004615,12.9820755 L25.2000839,12.9820755 M3.43073628,4.384375 C5.36267838,4.3125 6.95863056,5.9225 7.0006293,7.90625 C7.0006293,9.645625 5.8526637,11.155 4.2007132,11.5 L4.2007132,11.5 L4.2007132,23 L2.80075516,23 L2.80075516,11.5 C1.20480298,11.169375 0.042837804,9.731875 0.00083906256,8.05 C-0.0411596788,6.06625 1.49879417,4.4275 3.43073628,4.384375 Z M31.5,10 C32.8807119,10 34,11.1192881 34,12.5 C34,13.8807119 32.8807119,15 31.5,15 C30.2906746,15 29.2819003,14.1413382 29.0500973,13.0004345 L28,13 L28,12 L29.0498926,12.000574 C29.2813059,10.8591679 30.2903182,10 31.5,10 Z" id="Shape"></path>
        </g>
    </g>
</svg>