<?xml version="1.0" encoding="UTF-8"?>
<svg width="32px" height="32px" viewBox="0 0 32 32" version="1.1" xmlns="http://www.w3.org/2000/svg" xmlns:xlink="http://www.w3.org/1999/xlink">
    <!-- Generator: Sketch 64 (93537) - https://sketch.com -->
    <title>Call for Submissions</title>
    <desc>Created with Sketch.</desc>
    <g id="Call-for-Submissions" stroke="none" stroke-width="1" fill="none" fill-rule="evenodd">
        <g id="Group" transform="translate(16.000000, 17.000000) rotate(-20.000000) translate(-16.000000, -17.000000) translate(3.000000, 5.000000)" stroke="#000000" stroke-width="1.38">
            <ellipse id="Oval" cx="22.3846154" cy="10.2406713" rx="3" ry="9.88754468"></ellipse>
            <path d="M1.38461538,6.00315213 C0.619913423,6.00315213 -1.33226763e-14,7.90035407 -1.33226763e-14,10.2406713 C-1.33226763e-14,12.5809885 0.619913423,14.4781904 1.38461538,14.4781904" id="Path"></path>
            <line x1="1.38461538" y1="6.00315213" x2="22.3846154" y2="0.353126596" id="Line" stroke-linecap="round"></line>
            <line x1="1.38461538" y1="14.4781904" x2="22.3846154" y2="20.128216" id="Line" stroke-linecap="round"></line>
            <path d="M4.30780545,15.2755878 L10.7148282,16.9952234 L10.7148282,16.9952234 L9.88713897,21.774886 C9.73314048,22.6641823 8.88738301,23.2602588 7.99808679,23.1062603 C7.92282886,23.093228 7.84857716,23.0749356 7.77587778,23.0515177 L6.7950034,22.7355586 C6.27777913,22.5689504 5.85061262,22.199056 5.61176834,21.7109652 L3.15035848,16.680945 C2.90760724,16.1848702 3.11296663,15.5859333 3.60904151,15.343182 C3.82614031,15.236946 4.07436926,15.2129339 4.30780545,15.2755878 Z" id="Rectangle"></path>
        </g>
    </g>
</svg>