<?xml version="1.0" encoding="UTF-8"?>
<svg width="40px" height="40px" viewBox="0 0 40 40" version="1.1" xmlns="http://www.w3.org/2000/svg" xmlns:xlink="http://www.w3.org/1999/xlink">
    <!-- Generator: Sketch 61.2 (89653) - https://sketch.com -->
    <title>Call for Submissions</title>
    <desc>Created with Sketch.</desc>
    <g id="Call-for-Submissions" stroke="none" stroke-width="1" fill="none" fill-rule="evenodd">
        <g id="Group" transform="translate(6.500000, 2.313657)" stroke="#000000" stroke-linecap="round">
            <path d="M2.13162821e-14,21.148204 L2.13162821e-14,1 C2.13162821e-14,0.44771525 0.44771525,-7.10542736e-15 1,-7.10542736e-15 L25.3589581,-7.10542736e-15 C25.9112429,-7.10542736e-15 26.3589581,0.44771525 26.3589581,1 L26.3589581,34.1452775 C26.3589581,34.6975622 25.9112429,35.1452775 25.3589581,35.1452775 L11.8094411,35.1452775 L11.8094411,35.1452775" id="Path" stroke-width="1.4"></path>
            <line x1="5.49127727" y1="9.8846093" x2="21.9604558" y2="9.8846093" id="Line-4" stroke-width="1.4"></line>
            <polyline id="Path" stroke-width="1.4" stroke-linejoin="round" points="5.49144961 18.7042875 5.49144961 16.4743488 10.1495733 16.4743488 10.1495733 20.3787409"></polyline>
            <line x1="5.49127727" y1="13.1794791" x2="21.9604558" y2="13.1794791" id="Line-4" stroke-width="1.4"></line>
            <line x1="11.6003522" y1="24.1623783" x2="21.9604558" y2="24.1623783" id="Line-4" stroke-width="1.4"></line>
            <line x1="13.4208025" y1="17.0234938" x2="20.6605066" y2="17.0234938" id="Line-4" stroke-width="1.4"></line>
            <line x1="13.4208025" y1="20.3183636" x2="20.6605066" y2="20.3183636" id="Line-4" stroke-width="1.4"></line>
            <line x1="12.4016427" y1="27.457248" x2="21.9604558" y2="27.457248" id="Line-4" stroke-width="1.4"></line>
            <line x1="12.6512952" y1="30.7521178" x2="21.9604558" y2="30.7521178" id="Line-4" stroke-width="1.4"></line>
            <line x1="6.0693555" y1="5.29245255" x2="20.6605066" y2="5.29245255" id="Line-4" stroke-width="2.5"></line>
        </g>
        <g id="megahorn" transform="translate(1.562787, 21.921185)">
            <ellipse id="Oval" stroke="#000000" transform="translate(12.442214, 7.971362) rotate(-15.000000) translate(-12.442214, -7.971362) " cx="12.4422139" cy="7.97136195" rx="2.03223738" ry="6.90960708"></ellipse>
            <path d="M10.6660502,3.09329419 C8.05236752,4.67307329 6.14681196,5.7124271 4.94938355,6.2113556 C3.75195514,6.71028411 2.4059309,7.02575522 0.911310818,7.15776894" id="Line" stroke="#000000" stroke-linecap="round" transform="translate(5.788681, 5.125532) rotate(-15.000000) translate(-5.788681, -5.125532) "></path>
            <path d="M12.9803699,15.7949274 C10.1569212,14.0238395 8.23923884,12.9274796 7.22732287,12.505848 C6.2154069,12.0842163 4.88150943,11.8257512 3.22563046,11.7304527" id="Line-2" stroke="#000000" stroke-linecap="round" transform="translate(8.103000, 13.762690) rotate(-15.000000) translate(-8.103000, -13.762690) "></path>
            <path d="M1.80969489,8.39538796 C1.74134379,8.52830769 1.70716825,9.34120265 1.70716825,10.8340728 C1.70716825,12.326943 1.74134379,13.1398379 1.80969489,13.2727577" id="Line-3" stroke="#000000" stroke-linecap="round" transform="translate(1.758432, 10.834073) rotate(-15.000000) translate(-1.758432, -10.834073) "></path>
            <path d="M4.81886244,12.0208234 L7.04723064,12.4082727 C7.42089051,12.4732414 7.67113413,12.8288202 7.60616539,13.2024801 C7.56001167,13.4679276 7.36289448,13.6818615 7.10210086,13.7495317 C6.50848682,13.9035924 6.1846938,14.0315314 6.1307218,14.1333486 C6.0483421,14.2887564 6.02138903,14.5768917 6.04986259,14.9977547 C6.07896836,15.428209 5.82873488,15.8288067 5.42913091,15.9914559 L5.17087153,16.0965741 C4.74719597,16.2690211 4.26394321,16.06536 4.09149628,15.6416845 C4.06833891,15.5847904 4.05158264,15.5254967 4.04153662,15.4648974 L3.66102539,13.1695877 C3.57070162,12.6247391 3.93916684,12.1098301 4.48401549,12.0195063 C4.59491183,12.0011221 4.70811415,12.0015674 4.81886244,12.0208234 Z" id="Rectangle" fill="#000000" transform="translate(7.047231, 14.133349) rotate(-15.000000) translate(-7.047231, -14.133349) "></path>
        </g>
    </g>
</svg>