<?xml version="1.0" encoding="UTF-8"?>
<svg width="32px" height="32px" viewBox="0 0 32 32" version="1.1" xmlns="http://www.w3.org/2000/svg" xmlns:xlink="http://www.w3.org/1999/xlink">
    <!-- Generator: Sketch 64 (93537) - https://sketch.com -->
    <title>Capital Plan</title>
    <desc>Created with Sketch.</desc>
    <g id="Capital-Plan" stroke="none" stroke-width="1" fill="none" fill-rule="evenodd">
        <g id="Group" transform="translate(3.500000, 1.000000)" stroke="#000000" stroke-width="1.38">
            <rect id="Rectangle" x="0" y="0" width="25" height="30" rx="1"></rect>
            <line x1="4.55582567" y1="25.5560002" x2="12.3400025" y2="25.5560002" id="Line-4" stroke-linecap="round"></line>
            <line x1="4.53125" y1="22.9326055" x2="20.46875" y2="22.9326055" id="Line-4" stroke-linecap="round"></line>
            <line x1="4.53125" y1="20.3092109" x2="20.46875" y2="20.3092109" id="Line-4" stroke-linecap="round"></line>
        </g>
        <g id="Group" transform="translate(5.687161, 4.598851)" stroke="#000000">
            <rect id="Rectangle" x="0.687522591" y="0" width="19.2506326" height="1.37504518" rx="0.687522591"></rect>
            <rect id="Rectangle" x="2.06256777" y="1.37504518" width="16.5005422" height="9.62531628"></rect>
            <rect id="Rectangle" x="3.43761296" y="3.43761296" width="13.7504518" height="2.06256777" rx="1"></rect>
            <path d="M9.25027109,7.5627485 L11.3754066,7.5627485 C11.9276914,7.5627485 12.3754066,8.01046375 12.3754066,8.5627485 L12.3754066,11.0003615 L12.3754066,11.0003615 L8.25027109,11.0003615 L8.25027109,8.5627485 C8.25027109,8.01046375 8.69798634,7.5627485 9.25027109,7.5627485 Z" id="Rectangle"></path>
            <rect id="Rectangle" x="3.43761296" y="7.5627485" width="3.43761296" height="2.06256777" rx="1"></rect>
            <rect id="Rectangle" x="13.7504518" y="7.5627485" width="3.43761296" height="2.06256777" rx="1"></rect>
            <rect id="Rectangle" x="0" y="11.0003615" width="20.6256777" height="1.37504518" rx="0.687522591"></rect>
        </g>
    </g>
</svg>