<?xml version="1.0" encoding="UTF-8"?>
<svg width="40px" height="40px" viewBox="0 0 40 40" version="1.1" xmlns="http://www.w3.org/2000/svg" xmlns:xlink="http://www.w3.org/1999/xlink">
    <!-- Generator: Sketch 61.2 (89653) - https://sketch.com -->
    <title>Certificate of Application</title>
    <desc>Created with Sketch.</desc>
    <g id="Certificate-of-Application" stroke="none" stroke-width="1" fill="none" fill-rule="evenodd">
        <g id="Group" transform="translate(6.655996, 2.207995)" stroke="#000000" stroke-linecap="round">
            <path d="M0,18.9355838 L0,1 C0,0.44771525 0.44771525,0 1,0 L25.688008,0 C26.2402928,0 26.688008,0.44771525 26.688008,1 L26.688008,34.5840107 C26.688008,35.1362955 26.2402928,35.5840107 25.688008,35.5840107 L9.18098498,35.5840107 L9.18098498,35.5840107" id="Path" stroke-width="1.4"></path>
            <line x1="5.55982718" y1="10.008003" x2="22.2345974" y2="10.008003" id="Line-4" stroke-width="1.4"></line>
            <polyline id="Path" stroke-width="1.4" stroke-linejoin="round" points="5.56000167 18.4745372 5.56000167 16.680005 10.2762747 16.680005 10.2762747 20.5720062"></polyline>
            <line x1="5.55982718" y1="13.344004" x2="22.2345974" y2="13.344004" id="Line-4" stroke-width="1.4"></line>
            <line x1="12.4799501" y1="24.4640074" x2="22.2345974" y2="24.4640074" id="Line-4" stroke-width="1.4"></line>
            <line x1="13.58834" y1="17.2360052" x2="20.9184204" y2="17.2360052" id="Line-4" stroke-width="1.4"></line>
            <line x1="13.58834" y1="20.5720062" x2="20.9184204" y2="20.5720062" id="Line-4" stroke-width="1.4"></line>
            <line x1="13.0622468" y1="27.8000084" x2="22.2345974" y2="27.8000084" id="Line-4" stroke-width="1.4"></line>
            <line x1="12.4799501" y1="31.1360094" x2="22.2345974" y2="31.1360094" id="Line-4" stroke-width="1.4"></line>
            <line x1="6.14512181" y1="5.35852046" x2="20.9184204" y2="5.35852046" id="Line-4" stroke-width="2.5"></line>
        </g>
        <g id="Group-2" transform="translate(2.155996, 22.024314)" fill="#000000" fill-rule="nonzero">
            <path d="M15.2167221,8.49036917 L14.7134706,7.99786299 L15.216692,7.5053869 C16.120859,6.63896368 15.7058271,5.11142097 14.4994383,4.81561025 L13.8141495,4.64070629 L14.0087079,3.95752439 C14.3467773,2.75366386 13.2226785,1.65593159 12.0387735,1.98752975 L11.3563741,2.18199791 L11.1815304,1.49640811 C10.8872547,0.296279819 9.35113382,-0.120226971 8.49057986,0.780569041 L8,1.2859876 L7.50935994,0.780599139 C6.65687245,-0.111739118 5.1154542,0.283548039 4.81837934,1.49673919 L4.64359578,2.18202801 L3.96119644,1.98755985 C2.78313056,1.65671416 1.653313,2.74677124 1.991262,3.95752439 L2.18582045,4.64070629 L1.50056174,4.81561025 C0.294172905,5.11139087 -0.120859045,6.63896368 0.78327793,7.5053869 L1.28652938,7.99789309 L0.783308029,8.49036917 C-0.120859045,9.35679239 0.294172905,10.8843351 1.50056174,11.1801458 L2.18585055,11.3550498 L1.99129209,12.0382317 C1.65355379,13.2482926 2.78153532,14.3386506 3.96122654,14.0081962 L4.64362587,13.8137281 L4.81840944,14.4989868 C5.11729023,15.7203347 6.65037112,16.1125518 7.50821618,15.2164211 L8,14.7135308 L8.48922542,15.2137724 C9.33972639,16.1137256 10.883703,15.7158199 11.1816207,14.499047 L11.3564042,13.8137883 L12.0388036,14.0082564 C13.2268622,14.3419314 14.3443092,13.2404669 14.008738,12.0382919 L13.8141795,11.35511 L14.4994383,11.180206 C15.7058572,10.8843652 16.120859,9.35679239 15.2167221,8.49036917 L15.2167221,8.49036917 Z M14.2665942,10.2455188 L12.6166097,10.6666307 L13.081726,12.2998803 C13.2131372,12.7695716 12.7703241,13.2128362 12.3005726,13.0813046 L10.6678647,12.6160378 L10.2468732,14.2665641 C10.1326183,14.7446529 9.51405847,14.9027317 9.18483811,14.547506 L8,13.3360305 L6.81513179,14.5475361 C6.48251027,14.8991198 5.87003039,14.7557895 5.75309666,14.2665942 L5.33213526,12.6160679 L3.69942743,13.0813347 C3.22979631,13.2128061 2.78683271,12.769692 2.91827404,12.2999104 L3.38339034,10.6666608 L1.73340583,10.2455489 C1.25986187,10.1323173 1.09151944,9.52492412 1.4525542,9.18315258 L2.66363844,7.99789309 L1.4525542,6.81263359 C1.09170003,6.47101254 1.25971137,5.86355915 1.73340583,5.75026738 L3.38339034,5.32915548 L2.91827404,3.69587578 C2.7868628,3.22618446 3.22967592,2.78291986 3.69942743,2.91445149 L5.33213526,3.37971829 L5.75309666,1.729192 C5.86575636,1.25772485 6.48248018,1.09663623 6.81513179,1.44825007 L8,2.66869503 L9.18486821,1.44825007 C9.52134237,1.092603 10.1354777,1.26308243 10.2469033,1.729192 L10.6678647,3.37971829 L12.3005726,2.91445149 C12.7702037,2.78298006 13.2131673,3.22609417 13.081726,3.69587578 L12.6166097,5.32912538 L14.2665942,5.75023728 C14.7401381,5.86346886 14.9084806,6.47086205 14.5474458,6.81260349 L13.3363616,7.99786299 L14.5474458,9.18312248 C14.9083,9.52477363 14.7402886,10.132227 14.2665942,10.2455188 L14.2665942,10.2455188 Z" id="Shape"></path>
        </g>
    </g>
</svg>