<?xml version="1.0" encoding="UTF-8"?>
<svg width="32px" height="32px" viewBox="0 0 32 32" version="1.1" xmlns="http://www.w3.org/2000/svg" xmlns:xlink="http://www.w3.org/1999/xlink">
    <!-- Generator: Sketch 64 (93537) - https://sketch.com -->
    <title>Certificate of Application</title>
    <desc>Created with Sketch.</desc>
    <g id="Certificate-of-Application" stroke="none" stroke-width="1" fill="none" fill-rule="evenodd">
        <polygon id="Star" stroke="#000000" stroke-width="1.38" points="16 29.250558 13.653483 30.8153251 11.9053524 28.6020296 9.1901425 29.3650979 8.2115174 26.7199266 5.39339828 26.6066017 5.28007336 23.7884826 2.63490214 22.8098575 3.39797044 20.0946476 1.18467489 18.346517 2.74944196 16 1.18467489 13.653483 3.39797044 11.9053524 2.63490214 9.1901425 5.28007336 8.2115174 5.39339828 5.39339828 8.2115174 5.28007336 9.1901425 2.63490214 11.9053524 3.39797044 13.653483 1.18467489 16 2.74944196 18.346517 1.18467489 20.0946476 3.39797044 22.8098575 2.63490214 23.7884826 5.28007336 26.6066017 5.39339828 26.7199266 8.2115174 29.3650979 9.1901425 28.6020296 11.9053524 30.8153251 13.653483 29.250558 16 30.8153251 18.346517 28.6020296 20.0946476 29.3650979 22.8098575 26.7199266 23.7884826 26.6066017 26.6066017 23.7884826 26.7199266 22.8098575 29.3650979 20.0946476 28.6020296 18.346517 30.8153251"></polygon>
        <circle id="Oval" stroke="#000000" cx="16" cy="16" r="12"></circle>
        <line x1="9.5" y1="22.5" x2="22.5" y2="22.5" id="Line-3" stroke="#000000" stroke-linecap="round"></line>
        <circle id="Oval" stroke="#000000" cx="16" cy="12" r="5"></circle>
        <line x1="7.5" y1="19.5" x2="24.5" y2="19.5" id="Line-3" stroke="#000000" stroke-linecap="round"></line>
    </g>
</svg>