<?xml version="1.0" encoding="UTF-8"?>
<svg width="32px" height="32px" viewBox="0 0 32 32" version="1.1" xmlns="http://www.w3.org/2000/svg" xmlns:xlink="http://www.w3.org/1999/xlink">
    <!-- Generator: Sketch 64 (93537) - https://sketch.com -->
    <title>Electricity Supplier</title>
    <desc>Created with Sketch.</desc>
    <g id="Electricity-Supplier" stroke="none" stroke-width="1" fill="none" fill-rule="evenodd">
        <rect id="Rectangle" stroke="#000000" x="4" y="1.59504443" width="24" height="27.4049556"></rect>
        <path d="M14,24 L18,24 C18.5522847,24 19,24.4477153 19,25 L19,29 L19,29 L13,29 L13,25 C13,24.4477153 13.4477153,24 14,24 Z" id="Rectangle" stroke="#000000"></path>
        <rect id="Rectangle" stroke="#000000" x="6" y="24" width="5" height="3" rx="1"></rect>
        <rect id="Rectangle" stroke="#000000" x="6" y="19" width="5" height="3" rx="1"></rect>
        <rect id="Rectangle" stroke="#000000" x="6" y="14" width="5" height="3" rx="1"></rect>
        <rect id="Rectangle" stroke="#000000" x="6" y="9" width="5" height="3" rx="1"></rect>
        <rect id="Rectangle" stroke="#000000" x="6" y="4" width="20" height="3" rx="1"></rect>
        <rect id="Rectangle" stroke="#000000" x="21" y="24" width="5" height="3" rx="1"></rect>
        <rect id="Rectangle" stroke="#000000" x="21" y="19" width="5" height="3" rx="1"></rect>
        <rect id="Rectangle" stroke="#000000" x="21" y="14" width="5" height="3" rx="1"></rect>
        <rect id="Rectangle" stroke="#000000" x="21" y="9" width="5" height="3" rx="1"></rect>
        <rect id="Rectangle" stroke="#000000" x="1" y="29" width="30" height="2" rx="1"></rect>
        <polygon id="Rectangle" stroke="#000000" transform="translate(15.862506, 15.650266) rotate(-15.000000) translate(-15.862506, -15.650266) " points="12.8730489 14.9859423 18.8519623 11 16.8589912 14.995059 18.8519623 16.7984753 12.8730489 20.300532 14.8660201 16.7984753"></polygon>
    </g>
</svg>