<?xml version="1.0" encoding="UTF-8"?>
<svg width="32px" height="32px" viewBox="0 0 32 32" version="1.1" xmlns="http://www.w3.org/2000/svg" xmlns:xlink="http://www.w3.org/1999/xlink">
    <!-- Generator: Sketch 64 (93537) - https://sketch.com -->
    <title>Entrolment Projections</title>
    <desc>Created with Sketch.</desc>
    <g id="Entrolment-Projections" stroke="none" stroke-width="1" fill="none" fill-rule="evenodd">
        <g id="Group" transform="translate(2.000000, 3.000000)">
            <polyline id="Line-7" stroke="#000000" stroke-width="1.38" stroke-linecap="round" stroke-linejoin="round" points="0 0 0 27 29 27"></polyline>
            <line x1="4" y1="24" x2="7.18352651" y2="19.0598896" id="Path" stroke="#000000" stroke-width="1.38" stroke-linecap="round" stroke-linejoin="round"></line>
            <line x1="9.93788891" y1="16.9424933" x2="14.6842994" y2="15.5580701" id="Path" stroke="#000000" stroke-width="1.38" stroke-linecap="round" stroke-linejoin="round"></line>
            <line x1="18.0056393" y1="14" x2="21.6059248" y2="10.955058" id="Path" stroke="#000000" stroke-width="1.38" stroke-linecap="round" stroke-linejoin="round"></line>
            <line x1="24.917397" y1="9.05011286" x2="29" y2="8.05082517" id="Path" stroke="#000000" stroke-width="1.38" stroke-linecap="round" stroke-linejoin="round"></line>
            <g id="walking" fill="#000000">
                <g id="Group" transform="translate(2.597656, -0.000000)">
                    <path d="M8.38085941,6.7621094 L7.84492191,6.18515628 L7.60703128,5.4058594 C7.39101566,4.69218752 6.9699219,4.09882814 6.42578128,3.68867189 C6.95351565,3.32226564 7.30078128,2.71250001 7.30078128,2.02343751 C7.30078128,0.907812504 6.39296878,0 5.27734377,0 C4.16171877,0 3.25390626,0.907812504 3.25390626,2.02343751 C3.25390626,2.45273439 3.38789064,2.85195314 3.61757814,3.18007814 C3.21562501,3.28398439 2.84101564,3.44804689 2.37890626,3.65585939 L2.14375001,3.75976564 C1.48750001,4.04687502 0.957031254,4.58281252 0.642578128,5.26914065 L0.319921876,6.03476565 C0.120312501,6.50507815 0.164062501,7.01093753 0.434765627,7.42109378 C0.700000003,7.82031253 1.15390625,8.06640628 1.62421876,8.06640628 C1.96601563,8.06640628 2.28046876,7.93789066 2.52382814,7.71367191 C2.52929689,7.75195316 2.53476564,7.78750003 2.54023439,7.82578128 L2.15195313,8.88945316 L1.70625001,10.1089844 L0.410156252,11.5417969 C-0.101171875,12.0996094 -0.101171875,12.9746094 0.410156252,13.5351563 C0.672656253,13.8222657 1.04453125,13.9890626 1.42734376,13.9890626 C1.81015626,13.9890626 2.18203126,13.8250001 2.44453126,13.5351563 L3.72148439,12.1351563 C3.98398439,11.8453125 4.18632814,11.5089844 4.32304689,11.1371094 L4.56093752,10.4835938 L4.85078127,10.7761719 C4.86445315,10.7898438 4.87265627,10.8117188 4.87539065,10.828125 L5.30195315,12.8570313 C5.44140627,13.5214844 6.01562503,14 6.66640628,14 C6.77578128,14 6.88789065,13.9863282 6.99726565,13.9589844 C7.74648441,13.7703126 8.20039066,13.0128907 8.03632816,12.2390626 L7.60976566,10.2128907 C7.53320316,9.85195317 7.39648441,9.51289066 7.20781253,9.20937504 C7.25703128,9.21484379 7.30625003,9.21757816 7.35820316,9.21757816 C7.91328128,9.21757816 8.42187504,8.87304691 8.65429691,8.33710941 C8.88945316,7.80390628 8.78281254,7.1996094 8.38085941,6.7621094 Z M5.27734377,0.875000004 C5.91171877,0.875000004 6.42578128,1.38906251 6.42578128,2.02343751 C6.42578128,2.65781251 5.91171877,3.17187501 5.27734377,3.17187501 C4.64296877,3.17187501 4.12890627,2.65781251 4.12890627,2.02343751 C4.12890627,1.38906251 4.64296877,0.875000004 5.27734377,0.875000004 Z M3.50000001,10.8363282 C3.40429689,11.1015625 3.25937501,11.3394532 3.07343751,11.5445313 L1.79648438,12.9445313 C1.69531251,13.0566407 1.56132813,13.1140626 1.42460938,13.1140626 C1.29062501,13.1140626 1.15664063,13.0566407 1.05273438,12.9445313 C0.847656254,12.7203126 0.847656254,12.3566407 1.05273438,12.1324219 L2.32968751,10.7324219 C2.41445314,10.6394532 2.48007814,10.5300782 2.52382814,10.4097657 L2.96953126,9.19023441 L2.97226564,9.19296879 L2.99960939,9.22578129 L3.79257814,10.0269532 L3.50000001,10.8363282 L3.50000001,10.8363282 Z M7.35820316,8.34531253 C7.23789066,8.34531253 7.1121094,8.29609378 7.0027344,8.17578128 L6.36015628,7.48398441 C6.22343753,7.33632816 6.11953128,7.15312503 6.05937503,6.95351565 C5.74765627,5.92812502 5.7449219,5.86250002 5.5808594,5.62734377 L5.00937502,8.13476566 L6.18515628,9.32148441 C6.46953128,9.61132817 6.66914065,9.98320317 6.75390628,10.3960938 L7.18046878,12.4222657 C7.24609378,12.7312501 7.07109378,13.0402344 6.78671878,13.1113282 C6.74570315,13.1222657 6.70468753,13.1250001 6.66640628,13.1250001 C6.40937503,13.1250001 6.20976565,12.9171876 6.15781253,12.6792969 L5.73125002,10.6503907 C5.69296877,10.4617188 5.6027344,10.2949219 5.4714844,10.1636719 L3.74609377,8.41640629 C3.42890626,8.03906253 3.31679689,7.56328128 3.42070314,7.1121094 L3.85273439,5.21718752 C3.60664064,5.30468752 3.35781251,5.4167969 2.88476564,5.62734377 C2.66601564,5.7230469 2.48828126,5.90078127 2.38437501,6.13046878 L2.07812501,6.85781253 C1.97695313,7.09570315 1.80195313,7.19414065 1.62421876,7.19414065 C1.28242188,7.19414065 0.935156254,6.8277344 1.1265625,6.37656253 L1.44101563,5.63281252 C1.66796876,5.13515627 2.03984376,4.76054689 2.49648439,4.56093752 C3.43164064,4.14804689 3.82812502,3.93750002 4.59101564,3.93750002 C5.58359377,3.93750002 6.45859378,4.62929689 6.7730469,5.66015627 L7.05468753,6.5871094 C7.06289065,6.61445315 7.07656253,6.6417969 7.09843753,6.6636719 L7.73828128,7.35546878 C8.12382816,7.77382816 7.76289066,8.34531253 7.35820316,8.34531253 L7.35820316,8.34531253 Z" id="Shape" fill-rule="nonzero"></path>
                </g>
            </g>
            <circle id="Oval" stroke="#000000" cx="8.19137002" cy="17.5167332" r="1.61301375"></circle>
            <circle id="Oval" stroke="#000000" cx="16.5" cy="15.1130138" r="1.61301375"></circle>
            <circle id="Oval" stroke="#000000" cx="22.946805" cy="9.53495187" r="1.61301375"></circle>
        </g>
    </g>
</svg>