<?xml version="1.0" encoding="UTF-8"?>
<svg width="40px" height="40px" viewBox="0 0 40 40" version="1.1" xmlns="http://www.w3.org/2000/svg" xmlns:xlink="http://www.w3.org/1999/xlink">
    <!-- Generator: Sketch 63.1 (92452) - https://sketch.com -->
    <title>Estimated Yearly Capital Expenditure</title>
    <desc>Created with Sketch.</desc>
    <g id="Estimated-Yearly-Capital-Expenditure" stroke="none" stroke-width="1" fill="none" fill-rule="evenodd">
        <g id="Group" transform="translate(3.274609, 10.363866)">
            <path d="M17.786796,24.1426624 L33.2823791,24.1426624" id="Shape" stroke="#000000" stroke-width="2" stroke-linecap="round" stroke-linejoin="round"></path>
            <polyline id="Path" stroke="#000000" stroke-width="2" stroke-linecap="round" stroke-linejoin="round" points="1.70887413 1.84039902 7.3469711 2.93152817 12.3062088 1.84039902 18.764317 5.48424227 25.764317 1.84039902 32.764317 2.91356398"></polyline>
            <line x1="32.725391" y1="6.6361336" x2="32.764317" y2="21.2097453" id="Line-9" stroke="#000000" stroke-width="2" stroke-linecap="round"></line>
            <line x1="19.1135866" y1="9.23023506" x2="19.1135866" y2="21.1361336" id="Line-9" stroke="#000000" stroke-width="2" stroke-linecap="round"></line>
            <line x1="25.725391" y1="6.6361336" x2="25.7021055" y2="21.2166897" id="Line-9" stroke="#000000" stroke-width="2" stroke-linecap="round"></line>
            <path d="M2.72539104,5.6361336 L12.725391,5.6361336 C13.8299605,5.6361336 14.725391,6.53156411 14.725391,7.6361336 L14.725391,23.6361336 C14.725391,24.7407031 13.8299605,25.6361336 12.725391,25.6361336 L2.72539104,25.6361336 C1.62082154,25.6361336 0.725391037,24.7407031 0.725391037,23.6361336 L0.725391037,7.6361336 C0.725391037,6.53156411 1.62082154,5.6361336 2.72539104,5.6361336 M2.72539104,7.6361336 L2.72539104,11.6361336 L12.725391,11.6361336 L12.725391,7.6361336 L2.72539104,7.6361336 M2.72539104,13.6361336 L2.72539104,15.6361336 L4.72539104,15.6361336 L4.72539104,13.6361336 L2.72539104,13.6361336 M6.72539104,13.6361336 L6.72539104,15.6361336 L8.72539104,15.6361336 L8.72539104,13.6361336 L6.72539104,13.6361336 M10.725391,13.6361336 L10.725391,15.6361336 L12.725391,15.6361336 L12.725391,13.6361336 L10.725391,13.6361336 M2.72539104,17.6361336 L2.72539104,19.6361336 L4.72539104,19.6361336 L4.72539104,17.6361336 L2.72539104,17.6361336 M6.72539104,17.6361336 L6.72539104,19.6361336 L8.72539104,19.6361336 L8.72539104,17.6361336 L6.72539104,17.6361336 M10.725391,17.6361336 L10.725391,19.6361336 L12.725391,19.6361336 L12.725391,17.6361336 L10.725391,17.6361336 M2.72539104,21.6361336 L2.72539104,23.6361336 L4.72539104,23.6361336 L4.72539104,21.6361336 L2.72539104,21.6361336 M6.72539104,21.6361336 L6.72539104,23.6361336 L8.72539104,23.6361336 L8.72539104,21.6361336 L6.72539104,21.6361336 M10.725391,21.6361336 L10.725391,23.6361336 L12.725391,23.6361336 L12.725391,21.6361336 L10.725391,21.6361336 Z" id="Shape" fill="#000000" fill-rule="nonzero"></path>
        </g>
    </g>
</svg>