<?xml version="1.0" encoding="UTF-8"?>
<svg width="40px" height="40px" viewBox="0 0 40 40" version="1.1" xmlns="http://www.w3.org/2000/svg" xmlns:xlink="http://www.w3.org/1999/xlink">
    <!-- Generator: Sketch 61.2 (89653) - https://sketch.com -->
    <title>Facilities</title>
    <desc>Created with Sketch.</desc>
    <g id="Facilities" stroke="none" stroke-width="1" fill="none" fill-rule="evenodd">
        <polygon id="Line" stroke="#000000" stroke-width="1.4" stroke-linecap="round" stroke-linejoin="round" points="4 8 2 14.6242999 39 14.6242999 37 8"></polygon>
        <rect id="Rectangle" stroke="#000000" stroke-width="1.4" x="4" y="14.6242999" width="33" height="17" rx="1"></rect>
        <line x1="3" y1="31.6242999" x2="38" y2="31.6242999" id="Line-6" stroke="#000000" stroke-width="1.4" stroke-linecap="round"></line>
        <rect id="Rectangle" fill="#000000" x="8" y="20.6242999" width="4" height="4" rx="1"></rect>
        <rect id="Rectangle" fill="#000000" x="8" y="25.6242999" width="4" height="4" rx="1"></rect>
        <rect id="Rectangle" fill="#000000" x="14" y="20.6242999" width="4" height="4" rx="1"></rect>
        <rect id="Rectangle" fill="#000000" x="7" y="17" width="12" height="3" rx="1"></rect>
        <rect id="Rectangle" fill="#000000" x="21" y="17" width="12" height="3" rx="1"></rect>
        <rect id="Rectangle" fill="#000000" x="14" y="25.6242999" width="4" height="4" rx="1"></rect>
        <rect id="Rectangle" fill="#000000" x="22" y="20.6242999" width="4" height="4" rx="1"></rect>
        <rect id="Rectangle" fill="#000000" x="22" y="25.6242999" width="4" height="4" rx="1"></rect>
        <rect id="Rectangle" fill="#000000" x="28" y="20.6242999" width="4" height="4" rx="1"></rect>
        <rect id="Rectangle" fill="#000000" x="28" y="25.6242999" width="4" height="4" rx="1"></rect>
    </g>
</svg>