<?xml version="1.0" encoding="UTF-8"?>
<svg width="32px" height="32px" viewBox="0 0 32 32" version="1.1" xmlns="http://www.w3.org/2000/svg" xmlns:xlink="http://www.w3.org/1999/xlink">
    <title>Facility Enrolment</title>
    <g id="Facility-Enrolment" stroke="none" stroke-width="1" fill="none" fill-rule="evenodd">
        <g id="Group" transform="translate(2.000000, 3.000000)" stroke="#000000" stroke-linecap="round" stroke-linejoin="round" stroke-width="1.38">
            <polyline id="Line-7" points="0 0 0 27 29 27"></polyline>
        </g>
        <g id="Group-2" transform="translate(11.752273, 16.500000)" stroke="#000000">
            <line x1="3.35953264" y1="9.02055517" x2="8.10594308" y2="7.63613202" id="Path" stroke-width="1.38" stroke-linecap="round" stroke-linejoin="round"></line>
            <line x1="11.4272831" y1="6.07806189" x2="15.0275685" y2="3.03311986" id="Path" stroke-width="1.38" stroke-linecap="round" stroke-linejoin="round"></line>
            <circle id="Oval" cx="1.61301375" cy="9.59479505" r="1.61301375"></circle>
            <circle id="Oval" cx="9.92164373" cy="7.19107564" r="1.61301375"></circle>
            <circle id="Oval" cx="16.3684487" cy="1.61301375" r="1.61301375"></circle>
        </g>
        <g id="Group" transform="translate(5.002519, 3.000000)" stroke="#000000">
            <rect id="Rectangle" x="1.9639496" y="2.61859946" width="15.7115968" height="12.4383475"></rect>
            <rect id="Rectangle" x="3.9278992" y="5.23719893" width="11.7836976" height="2.61859946" rx="1"></rect>
            <rect id="Rectangle" x="1.30929973" y="0" width="17.0208965" height="2.61859946" rx="1"></rect>
            <path d="M4.9278992,10.4743979 L5.54649866,10.4743979 C6.09878341,10.4743979 6.54649866,10.9221131 6.54649866,11.4743979 L6.54649866,15.0569469 L6.54649866,15.0569469 L3.9278992,15.0569469 L3.9278992,11.4743979 C3.9278992,10.9221131 4.37561445,10.4743979 4.9278992,10.4743979 Z" id="Rectangle"></path>
            <rect id="Rectangle" x="8.51044826" y="10.4743979" width="2.61859946" height="2.61859946" rx="1"></rect>
            <rect id="Rectangle" x="13.0929973" y="10.4743979" width="2.61859946" height="2.61859946" rx="1"></rect>
            <line x1="0" y1="15.0569469" x2="19.639496" y2="15.0569469" id="Line-5" stroke-linecap="round"></line>
        </g>
    </g>
</svg>