<?xml version="1.0" encoding="UTF-8"?>
<svg width="32px" height="32px" viewBox="0 0 32 32" version="1.1" xmlns="http://www.w3.org/2000/svg" xmlns:xlink="http://www.w3.org/1999/xlink">
    <title>Fuel Types</title>
    <g id="Fuel-Types" stroke="none" stroke-width="1" fill="none" fill-rule="evenodd">
        <path d="M4.71947391,2.12689901 L19.4709436,2.12689901 C20.5755131,2.12689901 21.4709436,3.02232951 21.4709436,4.12689901 L21.4709436,30.8773531 L21.4709436,30.8773531 L2.71947391,30.8773531 L2.71947391,4.12689901 C2.71947391,3.02232951 3.61490441,2.12689901 4.71947391,2.12689901 Z" id="Rectangle" stroke="#000000"></path>
        <rect id="Rectangle" stroke="#000000" x="5.06340762" y="5.24535201" width="14.0636023" height="6.05272718" rx="1"></rect>
        <line x1="1" y1="30.8773531" x2="31" y2="30.8773531" id="Line-5" stroke="#000000" stroke-linecap="round"></line>
        <path d="M21.4709436,26.1808716 C22.326353,26.1808716 24.3329108,26.9679387 24.3329108,24.4397128 C24.3329108,22.6273782 24.3329108,20.3915369 24.3329108,17.7321892 C24.3329108,16.8296187 25.1494647,16.5021261 25.7327725,16.5021261 C26.3160802,16.5021261 27.194878,16.8296187 27.194878,17.7321892 L27.194878,28.1113115" id="Path" stroke="#000000" transform="translate(24.332911, 22.306719) scale(-1, 1) rotate(-180.000000) translate(-24.332911, -22.306719) "></path>
        <rect id="Rectangle" stroke="#000000" stroke-linejoin="round" x="5.83839447" y="14.5908112" width="5" height="4.76018769"></rect>
        <rect id="Rectangle" stroke="#000000" stroke-linejoin="round" transform="translate(15.757958, 24.764177) rotate(-315.000000) translate(-15.757958, -24.764177) " x="13.9236773" y="22.9298963" width="3.66856175" height="3.66856175"></rect>
        <ellipse id="Oval" stroke="#000000" stroke-linejoin="round" cx="15.7579581" cy="16.9709051" rx="2.5" ry="2.38009385"></ellipse>
        <polygon id="Triangle" stroke="#000000" stroke-linejoin="round" points="8.33839447 22.1701123 10.8383945 27.3582421 5.83839447 27.3582421"></polygon>
        <path d="M29.9977502,6.33729744 L30.0030068,6.34045807 C30.3342951,6.53965321 30.4413778,6.96969505 30.2421827,7.30098341 C30.2345954,7.31360206 30.2266119,7.32597816 30.2182439,7.33809323 C29.3223765,8.63512881 28.4265091,9.9321644 27.5306417,11.2292 C27.5306417,11.2292 27.5306417,12.6728926 27.5306417,12.6728926 C27.5306417,12.6728926 28.0099613,13.093466 28.9686004,13.9346128 L28.9686004,15.7022592 C28.9686004,16.1440135 28.6104878,16.5021261 28.1687335,16.5021261 L26.5326393,16.5021261 C26.0908851,16.5021261 25.7327725,16.1440135 25.7327725,15.7022592 L25.7327725,11.0443659 L25.7327725,11.0443659 L28.934516,6.55813873 C29.1770065,6.21836529 29.6400084,6.12219652 29.9977502,6.33729744 Z" id="Rectangle" stroke="#000000"></path>
    </g>
</svg>