<?xml version="1.0" encoding="UTF-8"?>
<svg width="32px" height="32px" viewBox="0 0 32 32" version="1.1" xmlns="http://www.w3.org/2000/svg" xmlns:xlink="http://www.w3.org/1999/xlink">
    <!-- Generator: Sketch 64 (93537) - https://sketch.com -->
    <title>Funding Programs</title>
    <desc>Created with Sketch.</desc>
    <g id="Funding-Programs" stroke="none" stroke-width="1" fill="none" fill-rule="evenodd">
        <g id="Group" transform="translate(1.510192, 4.000000)" stroke="#000000" stroke-width="1.38">
            <ellipse id="Oval" cx="17.989808" cy="7.5" rx="11" ry="3.5"></ellipse>
            <path d="M6.98980801,17 C6.98980801,19.209139 11.9146758,21 17.989808,21 C24.0649403,21 28.989808,19.209139 28.989808,17" id="Path"></path>
            <path d="M6.98980801,22 C6.98980801,24.209139 11.9146758,26 17.989808,26 C24.0649403,26 28.989808,24.209139 28.989808,22" id="Path"></path>
            <path d="M6.98980801,12 C6.98980801,14.209139 11.9146758,16 17.989808,16 C24.0649403,16 28.989808,14.209139 28.989808,12" id="Path"></path>
            <line x1="28.989808" y1="8" x2="28.989808" y2="21.5" id="Line-10" stroke-linecap="square"></line>
            <line x1="6.98980801" y1="8" x2="6.98980801" y2="21.5" id="Line-10" stroke-linecap="square"></line>
            <path d="M21.7044832,1.9929454 C20.3333839,0.556884635 16.4613762,-1.42108547e-14 11.5,-1.42108547e-14 C5.42486775,-1.42108547e-14 0.5,1.56700338 0.5,3.5 C0.5,4.65961824 2.27240292,5.68751974 5.00227344,6.32440691" id="Path" stroke-linecap="round"></path>
            <path d="M0.5,8 C0.5,9.32446296 2.27022359,10.4985776 4.99723804,11.2265502" id="Path" stroke-linecap="round"></path>
            <path d="M0.5,13 C0.5,14.3244969 2.27031444,15.4986379 4.99744799,16.2266063" id="Path" stroke-linecap="round"></path>
            <path d="M0.5,18 C0.5,19.3303192 2.25244532,20.5089576 5,21.2361804" id="Path" stroke-linecap="round"></path>
            <line x1="0.5" y1="4" x2="0.5" y2="17.5" id="Line-10" stroke-linecap="square"></line>
        </g>
    </g>
</svg>