<?xml version="1.0" encoding="UTF-8"?>
<svg width="40px" height="40px" viewBox="0 0 40 40" version="1.1" xmlns="http://www.w3.org/2000/svg" xmlns:xlink="http://www.w3.org/1999/xlink">
    <!-- Generator: Sketch 61.2 (89653) - https://sketch.com -->
    <title>Funding Programs</title>
    <desc>Created with Sketch.</desc>
    <g id="Funding-Programs" stroke="none" stroke-width="1" fill="none" fill-rule="evenodd">
        <g id="Group" transform="translate(6.655996, 2.207995)" stroke="#000000" stroke-linecap="round">
            <path d="M0,18.3183029 L0,1 C0,0.44771525 0.44771525,0 1,0 L25.688008,0 C26.2402928,0 26.688008,0.44771525 26.688008,1 L26.688008,34.5840107 C26.688008,35.1362955 26.2402928,35.5840107 25.688008,35.5840107 L12.9767874,35.5840107 L12.9767874,35.5840107" id="Path" stroke-width="1.4"></path>
            <line x1="5.55982718" y1="10.008003" x2="22.2345974" y2="10.008003" id="Line-4" stroke-width="1.4"></line>
            <polyline id="Path" stroke-width="1.4" stroke-linejoin="round" points="5.56000167 18.3270337 5.56000167 16.680005 10.2762747 16.680005 10.2762747 18.4039534"></polyline>
            <line x1="5.55982718" y1="13.344004" x2="22.2345974" y2="13.344004" id="Line-4" stroke-width="1.4"></line>
            <line x1="13.0833817" y1="24.4640074" x2="22.2345974" y2="24.4640074" id="Line-4" stroke-width="1.4"></line>
            <line x1="13.58834" y1="17.2360052" x2="20.9184204" y2="17.2360052" id="Line-4" stroke-width="1.4"></line>
            <line x1="13.58834" y1="20.5720062" x2="20.9184204" y2="20.5720062" id="Line-4" stroke-width="1.4"></line>
            <line x1="13.0833817" y1="27.8000084" x2="22.2345974" y2="27.8000084" id="Line-4" stroke-width="1.4"></line>
            <line x1="13.0833817" y1="31.1360094" x2="22.2345974" y2="31.1360094" id="Line-4" stroke-width="1.4"></line>
            <line x1="6.14512181" y1="5.35852046" x2="20.9184204" y2="5.35852046" id="Line-4" stroke-width="2.5"></line>
        </g>
        <g id="coins" transform="translate(2.417418, 22.671439)" fill="#000000">
            <g id="Group" transform="translate(-0.000000, -0.000000)">
                <path d="M10.4219177,0.992563595 C8.91446179,0.992563595 7.54968684,1.27172211 6.56022501,1.71837572 C6.53230916,1.73078277 4.96281797,2.36974558 4.96281797,3.47397258 L4.96281797,3.99196671 C2.3604403,4.10052835 0,5.06827786 0,6.45166337 L0,12.4070449 C0,13.7780234 2.44418785,14.8884539 5.45909977,14.8884539 C8.47401169,14.8884539 10.9181995,13.7780234 10.9181995,12.4070449 L10.9181995,11.8983561 C13.7004794,11.7835909 15.8810175,10.7227886 15.8810175,9.42935415 L15.8810175,3.47397258 C15.8810175,2.32632093 13.9548238,0.992563595 10.4219177,0.992563595 Z M9.92563595,12.4070449 C9.92563595,12.8381897 8.35924653,13.8958903 5.45909977,13.8958903 C2.55895302,13.8958903 0.992563595,12.8381897 0.992563595,12.4070449 L0.992563595,10.8530626 C1.97892367,11.4920254 3.61045008,11.9107631 5.45909977,11.9107631 C7.30774947,11.9107631 8.93927588,11.4920254 9.92563595,10.8530626 L9.92563595,12.4070449 Z M9.92563595,9.42935415 C9.92563595,9.86049896 8.35924653,10.9181995 5.45909977,10.9181995 C2.55895302,10.9181995 0.992563595,9.86049896 0.992563595,9.42935415 L0.992563595,7.87537177 C1.97892367,8.51433459 3.61045008,8.93307235 5.45909977,8.93307235 C7.30774947,8.93307235 8.93927588,8.51433459 9.92563595,7.87537177 L9.92563595,9.42935415 Z M5.45909977,7.94050876 C2.94667317,7.94050876 0.908816042,7.27363009 0.908816042,6.45166337 C0.908816042,5.62969664 2.94667317,4.96281797 5.45909977,4.96281797 C7.97152637,4.96281797 10.0093835,5.62969664 10.0093835,6.45166337 C10.0093835,7.27363009 7.97152637,7.94050876 5.45909977,7.94050876 Z M14.8884539,9.42935415 C14.8884539,9.83568487 13.4926614,10.781722 10.9181995,10.8964872 L10.9181995,8.90825826 C12.5559295,8.84001952 13.9920449,8.45540112 14.8884539,7.87537177 L14.8884539,9.42935415 Z M14.8884539,6.45166337 C14.8884539,6.85799409 13.4895596,7.79782774 10.9181995,7.91569467 L10.9181995,6.45166337 C10.9181995,6.27796474 10.8654696,6.11046963 10.7910273,5.94607629 C12.484589,5.89334634 13.9672308,5.49632091 14.8884539,4.89768099 L14.8884539,6.45166337 Z M10.4219177,4.96281797 C10.1954892,4.96281797 9.98767117,4.94730917 9.77364965,4.93490212 C8.62909975,4.26181994 7.1371526,4.06020546 6.18801366,4.00437375 C5.9926027,3.83998041 5.87473578,3.66318002 5.87473578,3.47397258 C5.87473578,2.65200586 7.91259291,1.98512719 10.4250195,1.98512719 C12.9374461,1.98512719 14.9753032,2.65200586 14.9753032,3.47397258 C14.9753032,4.29593931 12.9343443,4.96281797 10.4219177,4.96281797 Z" id="Shape" fill-rule="nonzero"></path>
            </g>
        </g>
    </g>
</svg>