<?xml version="1.0" encoding="UTF-8"?>
<svg width="32px" height="32px" viewBox="0 0 32 32" version="1.1" xmlns="http://www.w3.org/2000/svg" xmlns:xlink="http://www.w3.org/1999/xlink">
    <title>Funding Program</title>
    <g id="Funding-Program" stroke="none" stroke-width="1" fill="none" fill-rule="evenodd">
        <circle id="Oval" stroke="#000000" cx="22.5266218" cy="16" r="8"></circle>
        <circle id="Oval" stroke="#000000" transform="translate(3.000000, 26.828427) rotate(45.000000) translate(-3.000000, -26.828427) " cx="3" cy="26.8284271" r="2"></circle>
        <circle id="Oval" stroke="#000000" transform="translate(3.000000, 16.000000) rotate(90.000000) translate(-3.000000, -16.000000) " cx="3" cy="16" r="2"></circle>
        <circle id="Oval" stroke="#000000" transform="translate(3.000000, 5.171573) rotate(135.000000) translate(-3.000000, -5.171573) " cx="3" cy="5.17157288" r="2"></circle>
        <path d="M22.9346218,20.902 L22.9346218,19.702 C23.7986218,19.622 24.4406218,19.386 24.8606218,18.994 C25.2806218,18.602 25.4906218,18.114 25.4906218,17.53 C25.4906218,17.178 25.4186218,16.878 25.2746218,16.63 C25.1306218,16.382 24.9386218,16.168 24.6986218,15.988 C24.4586218,15.808 24.1866218,15.654 23.8826218,15.526 C23.5786218,15.398 23.2626218,15.274 22.9346218,15.154 L22.9346218,15.154 L22.9346218,13.426 C23.2146218,13.45 23.5166218,13.498 23.8406218,13.57 C24.1646218,13.642 24.4866218,13.746 24.8066218,13.882 L24.8066218,13.882 L25.3586218,12.514 C24.6226218,12.186 23.8146218,12.006 22.9346218,11.974 L22.9346218,11.974 L22.9346218,11.098 L22.1306218,11.098 L22.1306218,11.998 C21.7626218,12.03 21.4226218,12.1 21.1106218,12.208 C20.7986218,12.316 20.5326218,12.456 20.3126218,12.628 C20.0926218,12.8 19.9206218,13.006 19.7966218,13.246 C19.6726218,13.486 19.6106218,13.758 19.6106218,14.062 C19.6106218,14.358 19.6546218,14.62 19.7426218,14.848 C19.8306218,15.076 19.9746218,15.284 20.1746218,15.472 C20.3746218,15.66 20.6346218,15.838 20.9546218,16.006 C21.2746218,16.174 21.6666218,16.35 22.1306218,16.534 L22.1306218,16.534 L22.1306218,18.346 C21.6986218,18.322 21.2566218,18.244 20.8046218,18.112 C20.3526218,17.98 19.9586218,17.834 19.6226218,17.674 L19.6226218,17.674 L19.6226218,19.222 C19.9586218,19.374 20.3286218,19.492 20.7326218,19.576 C21.1366218,19.66 21.6026218,19.71 22.1306218,19.726 L22.1306218,19.726 L22.1306218,20.902 L22.9346218,20.902 Z M22.1306218,14.83 C21.8666218,14.71 21.6746218,14.594 21.5546218,14.482 C21.4346218,14.37 21.3746218,14.23 21.3746218,14.062 C21.3746218,13.726 21.6266218,13.522 22.1306218,13.45 L22.1306218,13.45 L22.1306218,14.83 Z M22.9346218,18.31 L22.9346218,16.846 C23.1986218,16.966 23.3966218,17.084 23.5286218,17.2 C23.6606218,17.316 23.7266218,17.454 23.7266218,17.614 C23.7266218,17.982 23.4626218,18.214 22.9346218,18.31 L22.9346218,18.31 Z" id="$" fill="#000000" fill-rule="nonzero"></path>
        <line x1="10" y1="11.4733782" x2="10" y2="21" id="Line-12" stroke="#000000" transform="translate(10.000000, 16.000000) rotate(90.000000) translate(-10.000000, -16.000000) "></line>
        <line x1="7.44" y1="2.55879123" x2="7.44" y2="7.61333333" id="Line-12" stroke="#000000" transform="translate(7.440000, 5.000000) rotate(90.000000) translate(-7.440000, -5.000000) "></line>
        <line x1="7.44" y1="24.5587912" x2="7.44" y2="29.6133333" id="Line-12" stroke="#000000" transform="translate(7.440000, 27.000000) rotate(90.000000) translate(-7.440000, -27.000000) "></line>
        <line x1="9.88120877" y1="5" x2="9.88120877" y2="27" id="Line-12" stroke="#000000" stroke-linecap="square"></line>
    </g>
</svg>