<?xml version="1.0" encoding="UTF-8"?>
<svg width="32px" height="32px" viewBox="0 0 32 32" version="1.1" xmlns="http://www.w3.org/2000/svg" xmlns:xlink="http://www.w3.org/1999/xlink">
    <!-- Generator: Sketch 64 (93537) - https://sketch.com -->
    <title>Portables</title>
    <desc>Created with Sketch.</desc>
    <g id="Portables" stroke="none" stroke-width="1" fill="none" fill-rule="evenodd">
        <g id="Group-2" transform="translate(2.000000, 8.000000)" stroke="#000000">
            <g id="Group">
                <rect id="Rectangle" x="0" y="0" width="28" height="2" rx="1"></rect>
                <rect id="Rectangle" x="2" y="2" width="24" height="14"></rect>
                <path d="M22,5 L23,5 C23.5522847,5 24,5.44771525 24,6 L24,10 L24,10 L21,10 L21,6 C21,5.44771525 21.4477153,5 22,5 Z" id="Rectangle"></path>
                <polyline id="Path" stroke-linecap="square" points="19 12 19 10 26 10 26 16 19 16"></polyline>
                <path d="M15,14 L15,12 L18,12 M18,16 L15,16" id="Shape" stroke-linecap="square"></path>
                <polyline id="Path" stroke-linecap="square" points="14 16 11 16 11 14 14 14"></polyline>
                <rect id="Rectangle" x="4" y="5" width="6" height="3" rx="1"></rect>
                <rect id="Rectangle" x="13" y="5" width="6" height="3" rx="1"></rect>
            </g>
            <line x1="18" y1="10" x2="2" y2="10" id="Line-2" stroke-linecap="square"></line>
        </g>
    </g>
</svg>