<?xml version="1.0" encoding="UTF-8"?>
<svg width="40px" height="40px" viewBox="0 0 40 40" version="1.1" xmlns="http://www.w3.org/2000/svg" xmlns:xlink="http://www.w3.org/1999/xlink">
    <!-- Generator: Sketch 61.2 (89653) - https://sketch.com -->
    <title>Program Types</title>
    <desc>Created with Sketch.</desc>
    <g id="Program-Types" stroke="none" stroke-width="1" fill="none" fill-rule="evenodd">
        <g id="Group" transform="translate(6.655996, 2.207995)" stroke="#000000" stroke-linecap="round">
            <path d="M0,17.663302 L0,1 C0,0.44771525 0.44771525,0 1,0 L25.688008,0 C26.2402928,0 26.688008,0.44771525 26.688008,1 L26.688008,34.5840107 C26.688008,35.1362955 26.2402928,35.5840107 25.688008,35.5840107 L12.5719174,35.5840107 L12.5719174,35.5840107" id="Path" stroke-width="1.4"></path>
            <line x1="5.55982718" y1="10.008003" x2="22.2345974" y2="10.008003" id="Line-4" stroke-width="1.4"></line>
            <polyline id="Path" stroke-width="1.4" stroke-linejoin="round" points="5.56000167 17.6732009 5.56000167 16.680005 10.2762747 16.680005 10.2762747 17.8735374"></polyline>
            <line x1="5.55982718" y1="13.344004" x2="22.2345974" y2="13.344004" id="Line-4" stroke-width="1.4"></line>
            <line x1="12.8489316" y1="24.4640074" x2="22.2345974" y2="24.4640074" id="Line-4" stroke-width="1.4"></line>
            <line x1="13.58834" y1="17.2360052" x2="20.9184204" y2="17.2360052" id="Line-4" stroke-width="1.4"></line>
            <line x1="13.58834" y1="20.5720062" x2="20.9184204" y2="20.5720062" id="Line-4" stroke-width="1.4"></line>
            <line x1="12.8489316" y1="27.8000084" x2="22.2345974" y2="27.8000084" id="Line-4" stroke-width="1.4"></line>
            <line x1="12.8489316" y1="31.1360094" x2="22.2345974" y2="31.1360094" id="Line-4" stroke-width="1.4"></line>
            <line x1="6.14512181" y1="5.35852046" x2="20.9184204" y2="5.35852046" id="Line-4" stroke-width="2.5"></line>
        </g>
        <g id="Group-3" transform="translate(2.155996, 23.000000)" stroke="#000000" stroke-linejoin="round" stroke-width="1.4">
            <g id="Group-2" transform="translate(0.902286, 0.331248)">
                <rect id="Rectangle" x="0.231645229" y="0" width="5.15338308" height="5.01553733"></rect>
                <polygon id="Rectangle" transform="translate(10.297431, 10.532628) rotate(-315.000000) translate(-10.297431, -10.532628) " points="8.11584675 8.22548122 12.4790146 8.22548122 12.4790146 12.8397756 8.11584675 12.8397756"></polygon>
                <ellipse id="Oval" cx="10.2974307" cy="2.50776867" rx="2.57669154" ry="2.50776867"></ellipse>
                <polygon id="Triangle" points="2.80833677 7.62361674 5.61667354 13.2410186 3.56375362e-16 13.2410186"></polygon>
            </g>
        </g>
    </g>
</svg>