<?xml version="1.0" encoding="UTF-8"?>
<svg width="40px" height="40px" viewBox="0 0 40 40" version="1.1" xmlns="http://www.w3.org/2000/svg" xmlns:xlink="http://www.w3.org/1999/xlink">
    <!-- Generator: Sketch 61.2 (89653) - https://sketch.com -->
    <title>Projects</title>
    <desc>Created with Sketch.</desc>
    <g id="Projects" stroke="none" stroke-width="1" fill="none" fill-rule="evenodd">
        <g id="folders" transform="translate(2.268533, 2.268533)" fill="#000000">
            <g id="Group" transform="translate(-0.000000, 3.546293)">
                <path d="M32.803214,3.5462934 L22.1643338,3.5462934 L19.1372399,0.519199519 C18.8047749,0.186734512 18.3537307,0 17.8832927,0 L9.75230686,0 C8.28336564,0 7.09258681,1.19077883 7.09258681,2.65972005 L7.09258681,7.09258681 L2.65972005,7.09258681 C1.19077883,7.09258681 0,8.28336564 0,9.75230686 L0,25.7106272 C0,27.1795684 1.19077883,28.3703472 2.65972005,28.3703472 L25.7106272,28.3703472 C27.1795684,28.3703472 28.3703472,27.1795684 28.3703472,25.7106272 L28.3703472,21.2777604 L32.803214,21.2777604 C34.2721552,21.2777604 35.462934,20.0869816 35.462934,18.6180404 L35.462934,6.20601346 C35.462934,4.73707223 34.2721552,3.5462934 32.803214,3.5462934 Z M26.5972005,25.7106272 C26.5972005,26.2004589 26.2004589,26.5972005 25.7106272,26.5972005 L2.65972005,26.5972005 C2.16988828,26.5972005 1.7731467,26.2004589 1.7731467,25.7106272 L1.7731467,9.75230686 C1.7731467,9.26247508 2.16988828,8.86573351 2.65972005,8.86573351 L7.09258681,8.86573351 L7.09258681,18.6180404 C7.09258681,20.0869816 8.28336564,21.2777604 9.75230686,21.2777604 L26.5972005,21.2777604 L26.5972005,25.7106272 Z M33.6897873,18.6180404 C33.6897873,19.1078721 33.2930458,19.5046137 32.803214,19.5046137 L9.75230686,19.5046137 C9.26247508,19.5046137 8.86573351,19.1078721 8.86573351,18.6180404 L8.86573351,2.65972005 C8.86573351,2.16988828 9.26247508,1.7731467 9.75230686,1.7731467 L17.8832927,1.7731467 L20.9103866,4.80024059 C21.2428516,5.13270559 21.6938958,5.3194401 22.1643338,5.3194401 L32.803214,5.3194401 C33.2930458,5.3194401 33.6897873,5.71618168 33.6897873,6.20601346 L33.6897873,18.6180404 Z" id="Shape" fill-rule="nonzero"></path>
            </g>
        </g>
    </g>
</svg>