<?xml version="1.0" encoding="UTF-8"?>
<svg width="40px" height="40px" viewBox="0 0 40 40" version="1.1" xmlns="http://www.w3.org/2000/svg" xmlns:xlink="http://www.w3.org/1999/xlink">
    <!-- Generator: Sketch 61.2 (89653) - https://sketch.com -->
    <title>Project Types</title>
    <desc>Created with Sketch.</desc>
    <g id="Project-Types" stroke="none" stroke-width="1" fill="none" fill-rule="evenodd">
        <g id="folder" transform="translate(1.900000, 1.900000)" fill="#000000">
            <g id="Group" transform="translate(-0.000000, -0.000000)">
                <path d="M13.7687266,6.78750003 L17.6312384,10.6500118 C18.0554571,11.0742305 18.6309805,11.3125 19.2312501,11.3125 L32.8062501,11.3125 C33.4312658,11.3125 33.9375001,11.8187344 33.9375001,12.4437501 L33.9375001,28.2812501 C33.9375001,28.9062657 33.4312658,29.4125001 32.8062501,29.4125001 L3.39375001,29.4125001 C2.76873439,29.4125001 2.26250001,28.9062657 2.26250001,28.2812501 L2.26250001,7.91875003 C2.26250001,7.29373441 2.76873439,6.78750003 3.39375001,6.78750003 L13.7687266,6.78750003 M3.39375001,4.52500002 C1.51941016,4.52500002 0,6.04441018 0,7.91875003 L0,28.2812501 C0,30.15559 1.51941016,31.6750001 3.39375001,31.6750001 L32.8062501,31.6750001 C34.68059,31.6750001 36.2000002,30.15559 36.2000002,28.2812501 L36.2000002,12.4437501 C36.2000002,10.5694102 34.68059,9.05000004 32.8062501,9.05000004 L19.2312501,9.05000004 L15.3687383,5.1874883 C14.9445196,4.76326955 14.3689962,4.52500002 13.7687266,4.52500002 L3.39375001,4.52500002 Z" id="Shape" fill-rule="nonzero"></path>
            </g>
        </g>
        <rect id="Rectangle" stroke="#000000" stroke-width="1.4" stroke-linejoin="round" x="13.2376053" y="15.1195038" width="5.39487939" height="5.39487939"></rect>
        <rect id="Rectangle" stroke="#000000" stroke-width="1.4" stroke-linejoin="round" transform="translate(23.775091, 26.084246) rotate(-315.000000) translate(-23.775091, -26.084246) " x="21.491274" y="23.8004292" width="4.56763336" height="4.56763336"></rect>
        <circle id="Oval" stroke="#000000" stroke-width="1.4" stroke-linejoin="round" cx="23.7750907" cy="17.8169435" r="2.69743969"></circle>
        <polygon id="Triangle" stroke="#000000" stroke-width="1.4" stroke-linejoin="round" points="15.935045 23.1443056 18.8749852 29.0241861 12.9951048 29.0241861"></polygon>
    </g>
</svg>