<?xml version="1.0" encoding="UTF-8"?>
<svg width="40px" height="40px" viewBox="0 0 40 40" version="1.1" xmlns="http://www.w3.org/2000/svg" xmlns:xlink="http://www.w3.org/1999/xlink">
    <!-- Generator: Sketch 63.1 (92452) - https://sketch.com -->
    <title>Project History</title>
    <desc>Created with Sketch.</desc>
    <g id="Project-History" stroke="none" stroke-width="1" fill="none" fill-rule="evenodd">
        <g id="folder" transform="translate(1.900000, 1.900000)" fill="#000000">
            <g id="Group" transform="translate(-0.000000, -0.000000)">
                <path d="M13.7687266,6.78750003 L17.6312384,10.6500118 C18.0554571,11.0742305 18.6309805,11.3125 19.2312501,11.3125 L32.8062501,11.3125 C33.4312658,11.3125 33.9375001,11.8187344 33.9375001,12.4437501 L33.9375001,28.2812501 C33.9375001,28.9062657 33.4312658,29.4125001 32.8062501,29.4125001 L3.39375001,29.4125001 C2.76873439,29.4125001 2.26250001,28.9062657 2.26250001,28.2812501 L2.26250001,7.91875003 C2.26250001,7.29373441 2.76873439,6.78750003 3.39375001,6.78750003 L13.7687266,6.78750003 M3.39375001,4.52500002 C1.51941016,4.52500002 0,6.04441018 0,7.91875003 L0,28.2812501 C0,30.15559 1.51941016,31.6750001 3.39375001,31.6750001 L32.8062501,31.6750001 C34.68059,31.6750001 36.2000002,30.15559 36.2000002,28.2812501 L36.2000002,12.4437501 C36.2000002,10.5694102 34.68059,9.05000004 32.8062501,9.05000004 L19.2312501,9.05000004 L15.3687383,5.1874883 C14.9445196,4.76326955 14.3689962,4.52500002 13.7687266,4.52500002 L3.39375001,4.52500002 Z" id="Shape" fill-rule="nonzero"></path>
            </g>
        </g>
        <g id="history" transform="translate(11.000000, 15.000000)" fill="#000000" fill-rule="nonzero">
            <path d="M9.52380952,3.80952381 L8.38095238,3.80952381 L8.38095238,7.61904762 L11.6419048,9.55428571 L12.1904762,8.63238095 L9.52380952,7.04761905 L9.52380952,3.80952381 M9.14285714,-6.76707367e-16 C5.35576172,-6.76707367e-16 2.28571429,3.07004743 2.28571429,6.85714286 L0,6.85714286 L3.01714286,9.92761905 L6.0952381,6.85714286 L3.80952381,6.85714286 C3.80952381,3.91162419 6.19733848,1.52380952 9.14285714,1.52380952 C12.0883758,1.52380952 14.4761905,3.91162419 14.4761905,6.85714286 C14.4761905,9.80266152 12.0883758,12.1904762 9.14285714,12.1904762 C7.67238095,12.1904762 6.33904762,11.5885714 5.37904762,10.6209524 L4.29714286,11.7028571 C5.53904762,12.952381 7.23809524,13.7142857 9.14285714,13.7142857 C12.9299526,13.7142857 16,10.6442383 16,6.85714286 C16,3.07004743 12.9299526,-6.76707367e-16 9.14285714,-6.76707367e-16" id="Shape"></path>
        </g>
    </g>
</svg>