<?xml version="1.0" encoding="UTF-8"?>
<svg width="32px" height="32px" viewBox="0 0 32 32" version="1.1" xmlns="http://www.w3.org/2000/svg" xmlns:xlink="http://www.w3.org/1999/xlink">
    <!-- Generator: Sketch 64 (93537) - https://sketch.com -->
    <title>Project History</title>
    <desc>Created with Sketch.</desc>
    <g id="Project-History" stroke="none" stroke-width="1" fill="none" fill-rule="evenodd">
        <g id="Group-2" transform="translate(1.000000, 5.529412)" stroke="#000000" stroke-width="1.38">
            <path d="M2,2.48689958e-14 L10.740125,2.48689958e-14 C11.2800029,2.52493297e-14 11.7969497,0.218262193 12.1734668,0.605176951 L14.892221,3.39901096 C15.2687381,3.78592572 15.7856849,4.00418791 16.3255628,4.00418791 L28,4.00418791 C29.1045695,4.00418791 30,4.89961841 30,6.00418791 L30,20.9411765 C30,22.045746 29.1045695,22.9411765 28,22.9411765 L2,22.9411765 C0.8954305,22.9411765 1.3527075e-16,22.045746 0,20.9411765 L0,2 C-1.3527075e-16,0.8954305 0.8954305,2.50719019e-14 2,2.48689958e-14 Z" id="Rectangle"></path>
            <g id="Group" transform="translate(5.958427, 6.747798)">
                <path d="M4.98655461,11.5154474 C6.14064692,12.5227552 7.6503146,13.1329388 9.3024983,13.1329388 C12.9290592,13.1329388 15.8689677,10.1930303 15.8689677,6.56646939 C15.8689677,2.93990848 12.9290592,0 9.3024983,0 C5.67593739,0 2.73602891,2.93990848 2.73602891,6.56646939" id="Path" stroke-linecap="round"></path>
                <polygon id="Triangle" stroke-linejoin="round" transform="translate(2.736029, 8.208087) scale(1, -1) translate(-2.736029, -8.208087) " points="2.73602891 6.56646939 5.47205782 9.84970408 0 9.84970408"></polygon>
                <line x1="9.02889541" y1="3.0096318" x2="9.02889541" y2="6.84007228" id="Line" stroke-linecap="round"></line>
                <line x1="12.3121301" y1="8.48168962" x2="9.02889541" y2="6.84007228" id="Line" stroke-linecap="round"></line>
            </g>
        </g>
    </g>
</svg>