<?xml version="1.0" encoding="UTF-8"?>
<svg width="32px" height="32px" viewBox="0 0 32 32" version="1.1" xmlns="http://www.w3.org/2000/svg" xmlns:xlink="http://www.w3.org/1999/xlink">
    <!-- Generator: Sketch 64 (93537) - https://sketch.com -->
    <title>Project Types</title>
    <desc>Created with Sketch.</desc>
    <g id="Project-Types" stroke="none" stroke-width="1" fill="none" fill-rule="evenodd">
        <g id="Group" transform="translate(1.000000, 5.529412)" stroke="#000000">
            <path d="M2,2.48689958e-14 L10.740125,2.48689958e-14 C11.2800029,2.52493297e-14 11.7969497,0.218262193 12.1734668,0.605176951 L14.892221,3.39901096 C15.2687381,3.78592572 15.7856849,4.00418791 16.3255628,4.00418791 L28,4.00418791 C29.1045695,4.00418791 30,4.89961841 30,6.00418791 L30,20.9411765 C30,22.045746 29.1045695,22.9411765 28,22.9411765 L2,22.9411765 C0.8954305,22.9411765 1.3527075e-16,22.045746 0,20.9411765 L0,2 C-1.3527075e-16,0.8954305 0.8954305,2.50719019e-14 2,2.48689958e-14 Z" id="Rectangle" stroke-width="1.38"></path>
            <rect id="Rectangle" stroke-linejoin="round" x="9" y="7.05882353" width="5" height="4.76018769"></rect>
            <rect id="Rectangle" stroke-linejoin="round" transform="translate(18.919564, 17.232189) rotate(-315.000000) translate(-18.919564, -17.232189) " x="17.0852828" y="15.3979086" width="3.66856175" height="3.66856175"></rect>
            <ellipse id="Oval" stroke-linejoin="round" cx="18.9195637" cy="9.43891738" rx="2.5" ry="2.38009385"></ellipse>
            <polygon id="Triangle" stroke-linejoin="round" points="11.5 14.6381246 14 19.8262544 9 19.8262544"></polygon>
        </g>
    </g>
</svg>