<?xml version="1.0" encoding="UTF-8"?>
<svg width="32px" height="32px" viewBox="0 0 32 32" version="1.1" xmlns="http://www.w3.org/2000/svg" xmlns:xlink="http://www.w3.org/1999/xlink">
    <title>Projects</title>
    <g id="Projects" stroke="none" stroke-width="1" fill="none" fill-rule="evenodd">
        <g id="Group" transform="translate(1.000000, 4.000000)" stroke="#000000">
            <path d="M23.5384615,18.0711694 L23.5384615,18.0711694 L23.5384615,22 C23.5384615,23.1045695 22.643031,24 21.5384615,24 L2,24 C0.8954305,24 0,23.1045695 0,22 L0,8 C0,6.8954305 0.8954305,6 2,6 L6.00837977,6 L6.00837977,6" id="Path"></path>
            <path d="M8,0 L14.2449905,0 C14.7848684,3.44915253e-16 15.3018152,0.218262193 15.6783323,0.605176951 L17.5578227,2.53657049 C17.9343398,2.92348524 18.4512867,3.14174744 18.9911645,3.14174744 L27.5384615,3.14174744 C28.643031,3.14174744 29.5384615,4.03717794 29.5384615,5.14174744 L29.5384615,16 C29.5384615,17.1045695 28.643031,18 27.5384615,18 L8,18 C6.8954305,18 6,17.1045695 6,16 L6,2 C6,0.8954305 6.8954305,2.02906125e-16 8,0 Z" id="Rectangle"></path>
            <line x1="13.6757852" y1="11.0437097" x2="17.1844528" y2="13.0904324" id="Line-4" stroke-width="1.38" stroke-linecap="round"></line>
            <line x1="16.5190159" y1="7.67367477" x2="23.5363511" y2="12.3518982" id="Line-4" stroke-width="1.38" stroke-linecap="round" transform="translate(20.027683, 9.508668) rotate(90.000000) translate(-20.027683, -9.508668) "></line>
        </g>
    </g>
</svg>