<?xml version="1.0" encoding="UTF-8"?>
<svg width="40px" height="40px" viewBox="0 0 40 40" version="1.1" xmlns="http://www.w3.org/2000/svg" xmlns:xlink="http://www.w3.org/1999/xlink">
    <!-- Generator: Sketch 63.1 (92452) - https://sketch.com -->
    <title>School Authority</title>
    <desc>Created with Sketch.</desc>
    <g id="School-Authority" stroke="none" stroke-width="1" fill="none" fill-rule="evenodd">
        <g id="Group" transform="translate(3.000000, 4.391336)">
            <polyline id="Path" stroke="#000000" stroke-width="1.4" stroke-linecap="round" stroke-linejoin="round" points="17.0173895 18.5930275 36 18.5930275 31.5 14.5930275 3.5 14.5930275 1.73764393 16.1595662"></polyline>
            <polygon id="Line" stroke="#000000" stroke-width="1.4" stroke-linecap="round" stroke-linejoin="round" points="12 6.59302749 12 14.5930275 23 14.5930275 23 6.59302749"></polygon>
            <circle id="Oval" stroke="#000000" cx="17.5" cy="10.5930275" r="2.5"></circle>
            <path d="M32,18.5930275 L32,30.2173274 C32,30.7696122 31.5522847,31.2173274 31,31.2173274 L17,31.2173274" id="Path" stroke="#000000" stroke-width="1.4" stroke-linecap="round"></path>
            <line x1="17" y1="31.2173274" x2="35" y2="31.2173274" id="Line-6" stroke="#000000" stroke-width="1.4" stroke-linecap="round"></line>
            <rect id="Rectangle" fill="#000000" x="18" y="18.5930275" width="4" height="4" rx="1"></rect>
            <rect id="Rectangle" fill="#000000" x="18" y="24.5930275" width="4" height="4" rx="1"></rect>
            <rect id="Rectangle" fill="#000000" x="24" y="18.5930275" width="4" height="4" rx="1"></rect>
            <rect id="Rectangle" fill="#000000" x="24" y="24.5930275" width="4" height="4" rx="1"></rect>
            <polygon id="Triangle" stroke="#000000" stroke-linejoin="round" points="17.5 0 25 6.45349326 10 6.45349326"></polygon>
            <path d="M7.04545455,16.6086637 L0.545454545,19.5177546 L0.545454545,23.881391 C0.545454545,27.9177546 3.31878788,31.6923001 7.04545455,32.6086637 C10.7721212,31.6923001 13.5454545,27.9177546 13.5454545,23.881391 L13.5454545,19.5177546 L7.04545455,16.6086637 M7.04545455,18.1941183 L12.1010101,20.4632092 L12.1010101,24.041391 C12.1010101,25.2777546 11.739899,26.5359364 11.1260101,27.641391 C9.93434343,26.7468455 7.95545455,26.4268455 7.04545455,26.4268455 C6.13545455,26.4268455 4.15656566,26.7468455 2.96489899,27.641391 C2.3510101,26.5359364 1.98989899,25.2777546 1.98989899,24.041391 L1.98989899,20.4632092 L7.04545455,18.1941183 M7.04545455,20.2450273 C5.64940143,20.2450273 4.51767677,21.3846662 4.51767677,22.7904819 C4.51767677,24.1962976 5.64940143,25.3359364 7.04545455,25.3359364 C8.44150766,25.3359364 9.57323232,24.1962976 9.57323232,22.7904819 C9.57323232,21.3846662 8.44150766,20.2450273 7.04545455,20.2450273 M7.04545455,21.6995728 C7.64376302,21.6995728 8.12878788,22.1879894 8.12878788,22.7904819 C8.12878788,23.3929743 7.64376302,23.881391 7.04545455,23.881391 C6.44714607,23.881391 5.96212121,23.3929743 5.96212121,22.7904819 C5.96212121,22.1879894 6.44714607,21.6995728 7.04545455,21.6995728 M7.04545455,27.881391 C8.17934343,27.881391 9.67434343,28.3250273 10.3171212,28.8559364 C9.42156566,29.9759364 8.27323232,30.8268455 7.04545455,31.1541183 C5.81767677,30.8268455 4.66934343,29.9759364 3.77378788,28.8559364 C4.42378788,28.3250273 5.91156566,27.881391 7.04545455,27.881391 Z" id="Shape" fill="#000000" fill-rule="nonzero"></path>
        </g>
    </g>
</svg>