<?xml version="1.0" encoding="UTF-8"?>
<svg width="32px" height="32px" viewBox="0 0 32 32" version="1.1" xmlns="http://www.w3.org/2000/svg" xmlns:xlink="http://www.w3.org/1999/xlink">
    <!-- Generator: Sketch 64 (93537) - https://sketch.com -->
    <title>Schools</title>
    <desc>Created with Sketch.</desc>
    <g id="Schools" stroke="none" stroke-width="1" fill="none" fill-rule="evenodd">
        <g id="Group" transform="translate(1.000000, 6.000000)" stroke="#000000">
            <rect id="Rectangle" x="11" y="6" width="8" height="13"></rect>
            <polygon id="Triangle" stroke-linejoin="round" points="15 0 21 6 9 6"></polygon>
            <rect id="Rectangle" x="13" y="8" width="4" height="4" rx="2"></rect>
            <path d="M21.0047446,4 C22.5592458,4 24.8909976,4 28,4 C28.5522847,4 29,4.41973305 29,4.9375 L29,19 L1,19 L1,4.9375 C1,4.41973305 1.44771525,4 2,4 C5.11882755,4 7.45794821,4 9.01736198,4" id="Path" stroke-linecap="round"></path>
            <rect id="Rectangle" x="22" y="7" width="4" height="4" rx="1"></rect>
            <rect id="Rectangle" x="4" y="7" width="4" height="4" rx="1"></rect>
            <path d="M14,14 L16,14 C16.5522847,14 17,14.4477153 17,15 L17,19 L17,19 L13,19 L13,15 C13,14.4477153 13.4477153,14 14,14 Z" id="Rectangle"></path>
            <rect id="Rectangle" x="22" y="13" width="4" height="4" rx="1"></rect>
            <rect id="Rectangle" x="4" y="13" width="4" height="4" rx="1"></rect>
            <rect id="Rectangle" x="0" y="19" width="30" height="2" rx="1"></rect>
        </g>
    </g>
</svg>