<?xml version="1.0" encoding="UTF-8"?>
<svg width="40px" height="40px" viewBox="0 0 40 40" version="1.1" xmlns="http://www.w3.org/2000/svg" xmlns:xlink="http://www.w3.org/1999/xlink">
    <!-- Generator: Sketch 61.2 (89653) - https://sketch.com -->
    <title>Schools</title>
    <desc>Created with Sketch.</desc>
    <g id="Schools" stroke="none" stroke-width="1" fill="none" fill-rule="evenodd">
        <g id="Group" transform="translate(2.000000, 4.391336)">
            <polygon id="Line" stroke="#000000" stroke-width="1.4" stroke-linecap="round" stroke-linejoin="round" points="4.5 14.5930275 -1.60461922e-15 18.5930275 37 18.5930275 32.5 14.5930275"></polygon>
            <polygon id="Line" stroke="#000000" stroke-width="1.4" stroke-linecap="round" stroke-linejoin="round" points="13 6.59302749 13 14.5930275 24 14.5930275 24 6.59302749"></polygon>
            <circle id="Oval" stroke="#000000" cx="18.5" cy="10.5930275" r="2.5"></circle>
            <rect id="Rectangle" stroke="#000000" stroke-width="1.4" x="4" y="19.2173274" width="29" height="12" rx="1"></rect>
            <line x1="1" y1="31.2173274" x2="36" y2="31.2173274" id="Line-6" stroke="#000000" stroke-width="1.4" stroke-linecap="round"></line>
            <rect id="Rectangle" fill="#000000" x="7" y="18.5930275" width="4" height="4" rx="1"></rect>
            <rect id="Rectangle" fill="#000000" x="7" y="24.5930275" width="4" height="4" rx="1"></rect>
            <rect id="Rectangle" fill="#000000" x="13" y="18.5930275" width="4" height="4" rx="1"></rect>
            <rect id="Rectangle" fill="#000000" x="13" y="24.5930275" width="4" height="4" rx="1"></rect>
            <rect id="Rectangle" fill="#000000" x="19" y="18.5930275" width="4" height="4" rx="1"></rect>
            <rect id="Rectangle" fill="#000000" x="19" y="24.5930275" width="4" height="4" rx="1"></rect>
            <rect id="Rectangle" fill="#000000" x="25" y="18.5930275" width="4" height="4" rx="1"></rect>
            <rect id="Rectangle" fill="#000000" x="25" y="24.5930275" width="4" height="4" rx="1"></rect>
            <polygon id="Triangle" stroke="#000000" stroke-linejoin="round" points="18.5 1.77635684e-14 26 6.45349326 11 6.45349326"></polygon>
        </g>
    </g>
</svg>