<?xml version="1.0" encoding="UTF-8"?>
<svg width="32px" height="32px" viewBox="0 0 32 32" version="1.1" xmlns="http://www.w3.org/2000/svg" xmlns:xlink="http://www.w3.org/1999/xlink">
    <!-- Generator: Sketch 64 (93537) - https://sketch.com -->
    <title>School District</title>
    <desc>Created with Sketch.</desc>
    <g id="School-District" stroke="none" stroke-width="1" fill="none" fill-rule="evenodd">
        <g id="Group" transform="translate(2.000000, 3.000000)">
            <polyline id="Path" stroke="#000000" transform="translate(14.000000, 17.131579) rotate(45.000000) translate(-14.000000, -17.131579) " points="17.0209466 10.361884 23.8823529 7.24922601 20.7756793 23.9072583 4.11764706 27.0139319 7.23963511 20.1323208"></polyline>
            <polygon id="Rectangle" fill="#D8D8D8" transform="translate(14.004997, 20.816786) rotate(45.000000) translate(-14.004997, -20.816786) " points="15.1862579 22.0051137 14.4135566 17.7205862 19.1858759 15.6359072 17.443858 24.2627139 8.8241185 25.9976646 10.9098343 21.21693"></polygon>
            <path d="M14.5,20 C18.8333333,13.2897483 21,8.75641493 21,6.4 C21,2.8653776 18.0898509,0 14.5,0 C10.9101491,0 8,2.8653776 8,6.4 C8,8.75641493 10.1666667,13.2897483 14.5,20 Z" id="Oval" stroke="#000000" stroke-width="1.38"></path>
            <circle id="Oval" stroke="#000000" stroke-width="1.38" cx="14.5" cy="6.5" r="3.5"></circle>
        </g>
    </g>
</svg>