<?xml version="1.0" encoding="UTF-8"?>
<svg width="40px" height="40px" viewBox="0 0 40 40" version="1.1" xmlns="http://www.w3.org/2000/svg" xmlns:xlink="http://www.w3.org/1999/xlink">
    <!-- Generator: Sketch 61.2 (89653) - https://sketch.com -->
    <title>School Enrolments</title>
    <desc>Created with Sketch.</desc>
    <g id="School-Enrolments" stroke="none" stroke-width="1" fill="none" fill-rule="evenodd">
        <g id="walking" transform="translate(0.000000, 24.020116)" fill="#000000">
            <g id="Group" transform="translate(2.226562, -0.000000)">
                <path d="M7.18359378,5.79609377 L6.72421878,5.30156252 L6.52031253,4.63359377 C6.33515628,4.02187502 5.97421877,3.51328126 5.50781252,3.16171876 C5.96015627,2.84765626 6.25781253,2.32500001 6.25781253,1.73437501 C6.25781253,0.778125003 5.47968752,0 4.52343752,0 C3.56718751,0 2.78906251,0.778125003 2.78906251,1.73437501 C2.78906251,2.10234376 2.90390626,2.44453126 3.10078126,2.72578126 C2.75625001,2.81484376 2.43515626,2.95546876 2.03906251,3.13359376 L1.83750001,3.22265626 C1.27500001,3.46875001 0.820312503,3.92812502 0.550781252,4.51640627 L0.274218751,5.17265627 C0.103125,5.57578127 0.140625001,6.00937503 0.372656252,6.36093753 C0.600000003,6.70312503 0.989062504,6.91406253 1.39218751,6.91406253 C1.68515626,6.91406253 1.95468751,6.80390628 2.16328126,6.61171878 C2.16796876,6.64453128 2.17265626,6.67500003 2.17734376,6.70781253 L1.84453126,7.61953128 L1.46250001,8.66484379 L0.351562501,9.89296879 C-0.0867187504,10.3710938 -0.0867187504,11.1210938 0.351562501,11.6015625 C0.576562502,11.8476563 0.895312504,11.990625 1.22343751,11.990625 C1.55156251,11.990625 1.87031251,11.85 2.09531251,11.6015625 L3.18984376,10.4015625 C3.41484376,10.153125 3.58828126,9.86484379 3.70546877,9.54609379 L3.90937502,8.98593754 L4.15781252,9.23671879 C4.16953127,9.24843754 4.17656252,9.26718754 4.17890627,9.28125004 L4.54453127,11.0203125 C4.66406252,11.5898438 5.15625002,12 5.71406252,12 C5.80781252,12 5.90390627,11.9882813 5.99765627,11.9648438 C6.63984378,11.803125 7.02890628,11.1539063 6.88828128,10.490625 L6.52265628,8.75390629 C6.45703128,8.44453129 6.33984378,8.15390628 6.17812503,7.89375003 C6.22031253,7.89843753 6.26250003,7.90078128 6.30703128,7.90078128 C6.78281253,7.90078128 7.21875003,7.60546878 7.41796878,7.14609378 C7.61953128,6.68906253 7.52812503,6.17109378 7.18359378,5.79609377 Z M4.52343752,0.750000003 C5.06718752,0.750000003 5.50781252,1.190625 5.50781252,1.73437501 C5.50781252,2.27812501 5.06718752,2.71875001 4.52343752,2.71875001 C3.97968752,2.71875001 3.53906251,2.27812501 3.53906251,1.73437501 C3.53906251,1.190625 3.97968752,0.750000003 4.52343752,0.750000003 Z M3.00000001,9.28828129 C2.91796876,9.51562504 2.79375001,9.71953129 2.63437501,9.89531254 L1.53984376,11.0953125 C1.45312501,11.1914063 1.33828126,11.240625 1.22109376,11.240625 C1.10625,11.240625 0.991406254,11.1914063 0.902343754,11.0953125 C0.726562503,10.903125 0.726562503,10.5914063 0.902343754,10.3992188 L1.99687501,9.19921879 C2.06953126,9.11953129 2.12578126,9.02578129 2.16328126,8.92265629 L2.54531251,7.87734378 L2.54765626,7.87968753 L2.57109376,7.90781253 L3.25078126,8.59453129 L3.00000001,9.28828129 L3.00000001,9.28828129 Z M6.30703128,7.15312503 C6.20390628,7.15312503 6.09609378,7.11093753 6.00234378,7.00781253 L5.45156252,6.41484378 C5.33437502,6.28828128 5.24531252,6.13125003 5.19375002,5.96015627 C4.92656252,5.08125002 4.92421877,5.02500002 4.78359377,4.82343752 L4.29375002,6.97265628 L5.30156252,7.98984378 C5.54531252,8.23828128 5.71640627,8.55703129 5.78906252,8.91093754 L6.15468753,10.6476563 C6.21093753,10.9125 6.06093753,11.1773438 5.81718752,11.2382813 C5.78203127,11.2476563 5.74687502,11.25 5.71406252,11.25 C5.49375002,11.25 5.32265627,11.071875 5.27812502,10.8679688 L4.91250002,9.12890629 C4.87968752,8.96718754 4.80234377,8.82421879 4.68984377,8.71171879 L3.21093751,7.21406253 C2.93906251,6.89062503 2.84296876,6.48281253 2.93203126,6.09609378 L3.30234376,4.47187502 C3.09140626,4.54687502 2.87812501,4.64296877 2.47265626,4.82343752 C2.28515626,4.90546877 2.13281251,5.05781252 2.04375001,5.25468752 L1.78125001,5.87812502 C1.69453126,6.08203128 1.54453126,6.16640628 1.39218751,6.16640628 C1.09921875,6.16640628 0.801562503,5.85234377 0.965625004,5.46562502 L1.23515626,4.82812502 C1.42968751,4.40156252 1.74843751,4.08046877 2.13984376,3.90937502 C2.94140626,3.55546876 3.28125001,3.37500001 3.93515627,3.37500001 C4.78593752,3.37500001 5.53593752,3.96796877 5.80546877,4.85156252 L6.04687503,5.64609377 C6.05390628,5.66953127 6.06562503,5.69296877 6.08437503,5.71171877 L6.63281253,6.30468753 C6.96328128,6.66328128 6.65390628,7.15312503 6.30703128,7.15312503 L6.30703128,7.15312503 Z" id="Shape" fill-rule="nonzero"></path>
            </g>
        </g>
        <g id="Group" transform="translate(12.000000, 4.000000)">
            <polygon id="Line" stroke="#000000" stroke-width="1.4" stroke-linecap="round" stroke-linejoin="round" points="4.5 14.5930275 -1.60461922e-15 18.5930275 37 18.5930275 32.5 14.5930275"></polygon>
            <polygon id="Line" stroke="#000000" stroke-width="1.4" stroke-linecap="round" stroke-linejoin="round" points="13 6.59302749 13 14.5930275 24 14.5930275 24 6.59302749"></polygon>
            <circle id="Oval" stroke="#000000" cx="18.5" cy="10.5930275" r="2.5"></circle>
            <rect id="Rectangle" stroke="#000000" stroke-width="1.4" x="4" y="18.5930275" width="29" height="12.6242999" rx="1"></rect>
            <line x1="1" y1="31.2173274" x2="36" y2="31.2173274" id="Line-6" stroke="#000000" stroke-width="1.4" stroke-linecap="round"></line>
            <rect id="Rectangle" fill="#000000" x="7" y="18.5930275" width="4" height="4" rx="1"></rect>
            <rect id="Rectangle" fill="#000000" x="7" y="24.5930275" width="4" height="4" rx="1"></rect>
            <rect id="Rectangle" fill="#000000" x="13" y="18.5930275" width="4" height="4" rx="1"></rect>
            <rect id="Rectangle" fill="#000000" x="13" y="24.5930275" width="4" height="4" rx="1"></rect>
            <rect id="Rectangle" fill="#000000" x="19" y="18.5930275" width="4" height="4" rx="1"></rect>
            <rect id="Rectangle" fill="#000000" x="19" y="24.5930275" width="4" height="4" rx="1"></rect>
            <rect id="Rectangle" fill="#000000" x="25" y="18.5930275" width="4" height="4" rx="1"></rect>
            <rect id="Rectangle" fill="#000000" x="25" y="24.5930275" width="4" height="4" rx="1"></rect>
            <polygon id="Triangle" stroke="#000000" stroke-linejoin="round" points="18.5 1.77635684e-14 26 6.45349326 11 6.45349326"></polygon>
        </g>
    </g>
</svg>