<?xml version="1.0" encoding="UTF-8"?>
<svg width="40px" height="40px" viewBox="0 0 40 40" version="1.1" xmlns="http://www.w3.org/2000/svg" xmlns:xlink="http://www.w3.org/1999/xlink">
    <!-- Generator: Sketch 63.1 (92452) - https://sketch.com -->
    <title>School District</title>
    <desc>Created with Sketch.</desc>
    <g id="School-District" stroke="none" stroke-width="1" fill="none" fill-rule="evenodd">
        <g id="Group" transform="translate(3.000000, 4.391336)">
            <polyline id="Path" stroke="#000000" stroke-width="1.4" stroke-linecap="round" stroke-linejoin="round" points="17.0173895 18.5930275 36 18.5930275 31.5 14.5930275 3.5 14.5930275 1.73764393 16.1595662"></polyline>
            <polygon id="Line" stroke="#000000" stroke-width="1.4" stroke-linecap="round" stroke-linejoin="round" points="12 6.59302749 12 14.5930275 23 14.5930275 23 6.59302749"></polygon>
            <circle id="Oval" stroke="#000000" cx="17.5" cy="10.5930275" r="2.5"></circle>
            <path d="M32,18.5930275 L32,30.2173274 C32,30.7696122 31.5522847,31.2173274 31,31.2173274 L17,31.2173274" id="Path" stroke="#000000" stroke-width="1.4" stroke-linecap="round"></path>
            <line x1="17" y1="31.2173274" x2="35" y2="31.2173274" id="Line-6" stroke="#000000" stroke-width="1.4" stroke-linecap="round"></line>
            <rect id="Rectangle" fill="#000000" x="18" y="18.5930275" width="4" height="4" rx="1"></rect>
            <rect id="Rectangle" fill="#000000" x="18" y="24.5930275" width="4" height="4" rx="1"></rect>
            <rect id="Rectangle" fill="#000000" x="24" y="18.5930275" width="4" height="4" rx="1"></rect>
            <rect id="Rectangle" fill="#000000" x="24" y="24.5930275" width="4" height="4" rx="1"></rect>
            <polygon id="Triangle" stroke="#000000" stroke-linejoin="round" points="17.5 0 25 6.45349326 10 6.45349326"></polygon>
            <path d="M14.5833333,17.6086637 L14.45,17.6336637 L10,19.3586637 L5,17.6086637 L0.3,19.191997 C0.125,19.2503304 0,19.4003304 0,19.591997 L0,32.191997 C0,32.4221157 0.186548021,32.6086637 0.416666667,32.6086637 L0.55,32.5836637 L5,30.8586637 L10,32.6086637 L14.7,31.0253304 C14.875,30.966997 15,30.816997 15,30.6253304 L15,18.0253304 C15,17.7952117 14.813452,17.6086637 14.5833333,17.6086637 M5.83333333,19.666997 L9.16666667,20.8336637 L9.16666667,30.5503304 L5.83333333,29.3836637 L5.83333333,19.666997 M1.66666667,20.491997 L4.16666667,19.6503304 L4.16666667,29.4003304 L1.66666667,30.366997 L1.66666667,20.491997 M13.3333333,29.7253304 L10.8333333,30.566997 L10.8333333,20.8253304 L13.3333333,19.8586637 L13.3333333,29.7253304 Z" id="Shape" fill="#000000" fill-rule="nonzero"></path>
        </g>
    </g>
</svg>