<?xml version="1.0" encoding="UTF-8"?>
<svg width="32px" height="32px" viewBox="0 0 32 32" version="1.1" xmlns="http://www.w3.org/2000/svg" xmlns:xlink="http://www.w3.org/1999/xlink">
    <!-- Generator: Sketch 64 (93537) - https://sketch.com -->
    <title>Strongstart Centre</title>
    <desc>Created with Sketch.</desc>
    <g id="Strongstart-Centre" stroke="none" stroke-width="1" fill="none" fill-rule="evenodd">
        <g id="Group" transform="translate(1.000000, 12.000000)" stroke="#000000">
            <rect id="Rectangle" x="1" y="0" width="28" height="2" rx="1"></rect>
            <rect id="Rectangle" x="3" y="2" width="24" height="14"></rect>
            <rect id="Rectangle" x="5" y="5" width="5" height="3" rx="1"></rect>
            <rect id="Rectangle" x="12" y="5" width="6" height="3" rx="1"></rect>
            <rect id="Rectangle" x="20" y="5" width="5" height="3" rx="1"></rect>
            <path d="M13,11 L17,11 C17.5522847,11 18,11.4477153 18,12 L18,16 L18,16 L12,16 L12,12 C12,11.4477153 12.4477153,11 13,11 Z" id="Rectangle"></path>
            <rect id="Rectangle" x="5" y="11" width="5" height="3" rx="1"></rect>
            <rect id="Rectangle" x="20" y="11" width="5" height="3" rx="1"></rect>
            <rect id="Rectangle" x="0" y="16" width="30" height="2" rx="1"></rect>
        </g>
        <g id="Group-2" transform="translate(2.000000, 3.000000)" stroke="#000000">
            <rect id="Rectangle" x="4" y="0" width="20" height="5"></rect>
            <path d="M4,5 L4,6 L0,6 C0.666666667,5.11800465 1,4.45133799 1,4 C1,3.54866201 0.666666667,2.88199535 0,2 L3,2" id="Path"></path>
            <path d="M28,5 L28,6 L24,6 C24.6666667,5.11800465 25,4.45133799 25,4 C25,3.54866201 24.6666667,2.88199535 24,2 L27,2" id="Path" transform="translate(26.000000, 4.000000) scale(-1, 1) translate(-26.000000, -4.000000) "></path>
        </g>
    </g>
</svg>