<?xml version="1.0" encoding="UTF-8"?>
<svg width="40px" height="40px" viewBox="0 0 40 40" version="1.1" xmlns="http://www.w3.org/2000/svg" xmlns:xlink="http://www.w3.org/1999/xlink">
    <!-- Generator: Sketch 63.1 (92452) - https://sketch.com -->
    <title>Submission Category</title>
    <desc>Created with Sketch.</desc>
    <g id="Submission-Category" stroke="none" stroke-width="1" fill="none" fill-rule="evenodd">
        <g id="Group" transform="translate(1.655996, 2.207995)">
            <path d="M5,18.7915001 L5,1 C5,0.44771525 5.44771525,0 6,0 L30.688008,0 C31.2402928,0 31.688008,0.44771525 31.688008,1 L31.688008,34.5840107 C31.688008,35.1362955 31.2402928,35.5840107 30.688008,35.5840107 L17.8256847,35.5840107" id="Path" stroke="#000000" stroke-width="1.4" stroke-linecap="round"></path>
            <line x1="10.5598272" y1="10.008003" x2="27.2345974" y2="10.008003" id="Line-4" stroke="#000000" stroke-width="1.4" stroke-linecap="round"></line>
            <polyline id="Path" stroke="#000000" stroke-width="1.4" stroke-linecap="round" stroke-linejoin="round" points="10.5598272 18.7915001 10.5600017 16.680005 15.2762747 16.680005 15.2762747 18.7915001"></polyline>
            <line x1="10.5598272" y1="13.344004" x2="27.2345974" y2="13.344004" id="Line-4" stroke="#000000" stroke-width="1.4" stroke-linecap="round"></line>
            <line x1="17.8545932" y1="24.4640074" x2="27.2345974" y2="24.4640074" id="Line-4" stroke="#000000" stroke-width="1.4" stroke-linecap="round"></line>
            <line x1="18.58834" y1="17.2360052" x2="25.9184204" y2="17.2360052" id="Line-4" stroke="#000000" stroke-width="1.4" stroke-linecap="round"></line>
            <line x1="18.58834" y1="20.5720062" x2="25.9184204" y2="20.5720062" id="Line-4" stroke="#000000" stroke-width="1.4" stroke-linecap="round"></line>
            <line x1="17.8545932" y1="27.8000084" x2="27.2345974" y2="27.8000084" id="Line-4" stroke="#000000" stroke-width="1.4" stroke-linecap="round"></line>
            <line x1="17.8545932" y1="31.1360094" x2="27.2345974" y2="31.1360094" id="Line-4" stroke="#000000" stroke-width="1.4" stroke-linecap="round"></line>
            <line x1="11.1451218" y1="5.35852046" x2="25.9184204" y2="5.35852046" id="Line-4" stroke="#000000" stroke-width="2.5" stroke-linecap="round"></line>
            <path d="M11.594004,35.7920054 L15.344004,35.7920054 L15.344004,32.0420054 L11.594004,32.0420054 M11.594004,30.1670054 L15.344004,30.1670054 L15.344004,26.4170054 L11.594004,26.4170054 M5.96900402,24.5420054 L9.71900402,24.5420054 L9.71900402,20.7920054 L5.96900402,20.7920054 M11.594004,24.5420054 L15.344004,24.5420054 L15.344004,20.7920054 L11.594004,20.7920054 M5.96900402,30.1670054 L9.71900402,30.1670054 L9.71900402,26.4170054 L5.96900402,26.4170054 M0.344004018,30.1670054 L4.09400402,30.1670054 L4.09400402,26.4170054 L0.344004018,26.4170054 M0.344004018,35.7920054 L4.09400402,35.7920054 L4.09400402,32.0420054 L0.344004018,32.0420054 M5.96900402,35.7920054 L9.71900402,35.7920054 L9.71900402,32.0420054 L5.96900402,32.0420054 M0.344004018,24.5420054 L4.09400402,24.5420054 L4.09400402,20.7920054 L0.344004018,20.7920054 L0.344004018,24.5420054 Z" id="Shape" fill="#000000" fill-rule="nonzero"></path>
        </g>
    </g>
</svg>