<?xml version="1.0" encoding="UTF-8"?>
<svg width="20px" height="20px" viewBox="0 0 20 20" version="1.1" xmlns="http://www.w3.org/2000/svg" xmlns:xlink="http://www.w3.org/1999/xlink">
    <!-- Generator: Sketch 62 (91390) - https://sketch.com -->
    <title>System Configuration</title>
    <desc>Created with Sketch.</desc>
    <g id="System-Configuration" stroke="none" stroke-width="1" fill="none" fill-rule="evenodd">
        <path d="M6.74919836,14.8596184 C6.11898029,14.8596184 5.64764072,14.7669393 5.22661268,14.6610203 C4.94592732,14.589525 4.74732919,14.3353194 4.74732919,14.0440421 L4.74732919,13.204634 C4.49841953,13.0881231 4.26010178,12.9504284 4.03502389,12.7915499 L3.32801454,13.199338 C3.07380894,13.3476247 2.748108,13.2999611 2.54686189,13.0854751 C1.60947871,12.0898365 1.3764569,11.5337617 1.03222014,10.4772197 C0.936893039,10.1885904 1.06134787,9.87612931 1.3234974,9.72519473 L2.03315473,9.32799847 C2.00932295,9.05525703 2.00932295,8.77986763 2.03315473,8.50447822 L1.3234974,8.10463398 C1.05869989,7.95634737 0.936893039,7.64123834 1.03222014,7.35260905 C1.37910488,6.29341902 1.61212669,5.73999222 2.54686189,4.74435359 C2.748108,4.52986761 3.07116096,4.48220406 3.32801454,4.63049066 L4.03502389,5.03827882 C4.26010178,4.87940032 4.49841953,4.74170561 4.74732919,4.62519471 L4.74732919,3.82550623 C4.74732919,3.531581 4.9485753,3.27472742 5.23455661,3.20852804 C6.4049616,2.93049065 7.08813917,2.93049065 8.26119214,3.20852804 C8.54717344,3.27737539 8.74841955,3.531581 8.74841955,3.82550623 L8.74841955,4.63049066 C8.99732921,4.74700156 9.23564697,4.88469627 9.46072485,5.04357477 L10.1677342,4.63578661 C10.4245878,4.48750001 10.7476407,4.53781153 10.9515348,4.75229752 C11.6426563,5.49108256 12.2331548,6.30136294 12.4555847,7.40821653 C12.5085442,7.66771809 12.3920333,7.9325156 12.1669554,8.07285828 L11.462594,8.50977417 C11.4864258,8.7825156 11.4864258,9.05790501 11.462594,9.33329442 L12.1669554,9.77021031 C12.3893853,9.90790501 12.5085442,10.1727025 12.4555847,10.4295561 C12.2410987,11.501986 11.671784,12.3175623 10.9488869,13.093419 C10.7476407,13.307905 10.4245878,13.3555686 10.1677342,13.207282 L9.46072485,12.7994938 C9.23564697,12.9583723 8.99732921,13.096067 8.74841955,13.2125779 L8.74841955,14.051986 C8.74841955,14.3432633 8.55246939,14.5974689 8.26913606,14.6689642 C7.850756,14.7695873 7.37941643,14.8596184 6.74919836,14.8596184 Z M6.01835723,13.5170951 C6.50293668,13.5938863 6.99546004,13.5938863 7.47739151,13.5170951 L7.47739151,12.3308022 L7.90106752,12.1798676 C8.30355974,12.036877 8.67162827,11.825039 8.99468123,11.5470016 L9.33627002,11.2557243 L10.3636844,11.8488708 C10.6734974,11.4675623 10.9197591,11.0412384 11.0945255,10.5857866 L10.0671111,9.99264022 L10.1491984,9.55042838 C10.2259897,9.12940034 10.2259897,8.70307635 10.1491984,8.28204831 L10.0671111,7.83983647 L11.0945255,7.24669005 C10.9197591,6.79123833 10.6734974,6.36491434 10.3636844,5.98360593 L9.33627002,6.57675235 L8.99468123,6.28547509 C8.6689803,6.00743771 8.30091176,5.79295173 7.90106752,5.65260905 L7.47739151,5.50167447 L7.47739151,4.3180296 C6.99281207,4.24123832 6.5002887,4.24123832 6.01835723,4.3180296 L6.01835723,5.50432244 L5.59468122,5.65525702 C5.19218901,5.79824768 4.82412047,6.01008568 4.50106751,6.28812307 L4.15947872,6.57940033 L3.13206439,5.98625391 C2.8222513,6.36756232 2.57598962,6.79388631 2.40122326,7.24933802 L3.4286376,7.84248444 L3.34655037,8.28469628 C3.26975909,8.70572432 3.26975909,9.13204831 3.34655037,9.55307635 L3.4286376,9.99528819 L2.40122326,10.5884346 C2.57598962,11.0438863 2.8222513,11.4728583 3.13206439,11.8515187 L4.15947872,11.2583723 L4.50106751,11.5496496 C4.82676844,11.827687 5.19483698,12.0421729 5.59468122,12.1825156 L6.01835723,12.3334502 L6.01835723,13.5170951 L6.01835723,13.5170951 Z M6.73595848,11.2636683 C6.13751611,11.2636683 5.53907374,11.0359424 5.08362203,10.5804907 C4.1727186,9.66958726 4.1727186,8.18672121 5.08362203,7.27581777 C5.99452546,6.36491434 7.47739151,6.36491434 8.38829494,7.27581777 C9.29919837,8.18672121 9.29919837,9.66958726 8.38829494,10.5804907 C7.93019525,11.0359424 7.33175288,11.2636683 6.73595848,11.2636683 Z M6.73595848,7.86366824 C6.46321705,7.86366824 6.19047562,7.96693927 5.98128558,8.17612931 C5.56555349,8.59186139 5.56555349,9.26709504 5.98128558,9.68282713 C6.39701767,10.0985592 7.07225132,10.0985592 7.48798341,9.68282713 C7.9037155,9.26709504 7.9037155,8.59186139 7.48798341,8.17612931 C7.28144135,7.96693927 7.00869992,7.86366824 6.73595848,7.86366824 Z M18.9077654,13.5426402 C18.8812856,13.3890577 18.7488869,13.2778427 18.5926563,13.2778427 L18.1663324,13.2778427 C18.0736532,13.0156932 17.9333106,12.7747275 17.7558962,12.5681854 L17.9677342,12.2001169 C18.0445255,12.0650701 18.0153978,11.8929517 17.8962389,11.7949767 C17.6499772,11.5910826 17.3692919,11.4269081 17.0647747,11.3130452 C16.9191361,11.2574377 16.7523137,11.3156932 16.6755224,11.4533879 L16.4636844,11.8214564 C16.1935909,11.7711449 15.9155535,11.7711449 15.6454601,11.8214564 L15.4336221,11.4533879 C15.3541828,11.3183412 15.1900084,11.2600857 15.0443697,11.3130452 C14.7398526,11.4269081 14.4591672,11.5910826 14.2129056,11.7949767 C14.0937467,11.8929517 14.061971,12.0650701 14.1414102,12.2001169 L14.3532482,12.5681854 C14.1758339,12.7747275 14.0354912,13.0156932 13.9428121,13.2778427 L13.5164881,13.2778427 C13.3602576,13.2778427 13.2252108,13.3917056 13.2013791,13.5479362 C13.1484196,13.8709891 13.1510675,14.1966901 13.2013791,14.5065032 C13.2278588,14.6600857 13.3602576,14.7713007 13.5164881,14.7713007 L13.9428121,14.7713007 C14.0354912,15.0334502 14.1758339,15.2744159 14.3532482,15.480958 L14.1414102,15.8490265 C14.0646189,15.9840733 14.0937467,16.1561916 14.2129056,16.2541667 C14.4591672,16.4580608 14.7398526,16.6222353 15.0443697,16.7360982 C15.1900084,16.7917057 15.3568308,16.7334502 15.4336221,16.5957555 L15.6454601,16.227687 C15.9155535,16.2779985 16.1935909,16.2779985 16.4636844,16.227687 L16.6755224,16.5957555 C16.7549616,16.7308022 16.9191361,16.7890577 17.0647747,16.7360982 C17.3692919,16.6222353 17.6499772,16.4580608 17.8962389,16.2541667 C18.0153978,16.1561916 18.0471735,15.9840733 17.9677342,15.8490265 L17.7558962,15.480958 C17.9333106,15.2744159 18.0736532,15.0334502 18.1663324,14.7713007 L18.5926563,14.7713007 C18.7488869,14.7713007 18.8839336,14.6574377 18.9077654,14.5012072 C18.9607249,14.1808022 18.9607249,13.8551013 18.9077654,13.5426402 Z M16.0532482,14.8719237 C15.5845566,14.8719237 15.2058962,14.4932633 15.2058962,14.0245717 C15.2058962,13.5558801 15.5845566,13.1772197 16.0532482,13.1772197 C16.5219398,13.1772197 16.9006003,13.5558801 16.9006003,14.0245717 C16.9006003,14.4932633 16.5219398,14.8719237 16.0532482,14.8719237 Z" id="Shape" fill="#000000" fill-rule="nonzero"></path>
    </g>
</svg>