<?xml version="1.0" encoding="UTF-8"?>
<svg width="32px" height="32px" viewBox="0 0 32 32" version="1.1" xmlns="http://www.w3.org/2000/svg" xmlns:xlink="http://www.w3.org/1999/xlink">
    <title>Years</title>
    <g id="Years" stroke="none" stroke-width="1" fill="none" fill-rule="evenodd">
        <g id="Group-2" transform="translate(7.592676, 6.500000)" stroke="#000000">
            <rect id="Rectangle" stroke-width="1.38" x="0" y="1.9339562" width="16.7609537" height="16.7609537" rx="1"></rect>
            <path d="M1,1.9339562 L15.7609537,1.9339562 C16.3132385,1.9339562 16.7609537,2.38167145 16.7609537,2.9339562 L16.7609537,5.15721654 L16.7609537,5.15721654 L0,5.15721654 L0,2.9339562 C-6.76353751e-17,2.38167145 0.44771525,1.9339562 1,1.9339562 Z" id="Rectangle" stroke-width="1.38" fill="#000000"></path>
            <line x1="13.5376934" y1="0.322326034" x2="13.5376934" y2="1.61163017" id="Line-13" stroke-width="1.38" stroke-linecap="round"></line>
            <line x1="3.22326034" y1="0.322326034" x2="3.22326034" y2="1.61163017" id="Line-13" stroke-width="1.38" stroke-linecap="round"></line>
            <line x1="3.48117042" y1="8.70906437" x2="13.2797833" y2="8.70906437" id="Line-9" stroke-linecap="round"></line>
            <line x1="3.48117042" y1="12.0891998" x2="13.2797833" y2="12.0891998" id="Line-9" stroke-linecap="round"></line>
            <line x1="3.48117042" y1="15.4693352" x2="13.2797833" y2="15.4693352" id="Line-9" stroke-linecap="round"></line>
        </g>
        <g id="Group-2" transform="translate(27.347145, 6.500000)" stroke="#000000">
            <rect id="Rectangle" stroke-width="1.38" x="0" y="1.9339562" width="16.7609537" height="16.7609537" rx="1"></rect>
            <path d="M1,1.9339562 L15.7609537,1.9339562 C16.3132385,1.9339562 16.7609537,2.38167145 16.7609537,2.9339562 L16.7609537,5.15721654 L16.7609537,5.15721654 L0,5.15721654 L0,2.9339562 C-6.76353751e-17,2.38167145 0.44771525,1.9339562 1,1.9339562 Z" id="Rectangle" stroke-width="1.38"></path>
            <line x1="3.22326034" y1="0.322326034" x2="3.22326034" y2="1.61163017" id="Line-13" stroke-width="1.38" stroke-linecap="round"></line>
            <line x1="3.48117042" y1="8.70906437" x2="13.2797833" y2="8.70906437" id="Line-9" stroke-linecap="round"></line>
            <line x1="3.48117042" y1="12.0891998" x2="13.2797833" y2="12.0891998" id="Line-9" stroke-linecap="round"></line>
            <line x1="3.48117042" y1="15.4693352" x2="13.2797833" y2="15.4693352" id="Line-9" stroke-linecap="round"></line>
        </g>
        <g id="Group-2" transform="translate(-12.161793, 6.500000)" stroke="#000000">
            <rect id="Rectangle" stroke-width="1.38" x="0" y="1.9339562" width="16.7609537" height="16.7609537" rx="1"></rect>
            <path d="M1,1.9339562 L15.7609537,1.9339562 C16.3132385,1.9339562 16.7609537,2.38167145 16.7609537,2.9339562 L16.7609537,5.15721654 L16.7609537,5.15721654 L0,5.15721654 L0,2.9339562 C-6.76353751e-17,2.38167145 0.44771525,1.9339562 1,1.9339562 Z" id="Rectangle" stroke-width="1.38"></path>
            <line x1="13.5376934" y1="0.322326034" x2="13.5376934" y2="1.61163017" id="Line-13" stroke-width="1.38" stroke-linecap="round"></line>
            <line x1="3.48117042" y1="8.70906437" x2="13.2797833" y2="8.70906437" id="Line-9" stroke-linecap="round"></line>
            <line x1="3.48117042" y1="12.0891998" x2="13.2797833" y2="12.0891998" id="Line-9" stroke-linecap="round"></line>
            <line x1="3.48117042" y1="15.4693352" x2="13.2797833" y2="15.4693352" id="Line-9" stroke-linecap="round"></line>
        </g>
    </g>
</svg>